<mxfile host="app.diagrams.net" modified="2023-05-09T11:48:32.728Z" agent="Mozilla/5.0 (Windows NT 10.0; Win64; x64) AppleWebKit/537.36 (KHTML, like Gecko) Chrome/110.0.0.0 YaBrowser/23.3.3.719 Yowser/2.5 Safari/537.36" etag="fTbfsW_FdLyJuxkEWa68" version="21.2.9" type="device" pages="3">
  <diagram id="C5RBs43oDa-KdzZeNtuy" name="Логика программы">
    <mxGraphModel dx="1431" dy="1993" grid="1" gridSize="10" guides="1" tooltips="1" connect="1" arrows="1" fold="1" page="1" pageScale="1" pageWidth="827" pageHeight="1169" math="0" shadow="0">
      <root>
        <mxCell id="WIyWlLk6GJQsqaUBKTNV-0" />
        <mxCell id="WIyWlLk6GJQsqaUBKTNV-1" parent="WIyWlLk6GJQsqaUBKTNV-0" />
        <mxCell id="WIyWlLk6GJQsqaUBKTNV-3" value="&lt;font size=&quot;3&quot;&gt;&lt;br&gt;&lt;/font&gt;" style="rounded=1;whiteSpace=wrap;html=1;fontSize=12;glass=0;strokeWidth=1;shadow=0;" parent="WIyWlLk6GJQsqaUBKTNV-1" vertex="1">
          <mxGeometry x="80" y="270" width="150" height="100" as="geometry" />
        </mxCell>
        <mxCell id="E31PnU2OZpK3t2RN8RcZ-2" value="Регистрация" style="whiteSpace=wrap;html=1;shape=partialRectangle;top=0;left=0;bottom=1;right=0;points=[[0,1],[1,1]];fillColor=none;align=center;verticalAlign=bottom;routingCenterY=0.5;snapToPoint=1;recursiveResize=0;autosize=1;treeFolding=1;treeMoving=1;newEdgeStyle={&quot;edgeStyle&quot;:&quot;entityRelationEdgeStyle&quot;,&quot;startArrow&quot;:&quot;none&quot;,&quot;endArrow&quot;:&quot;none&quot;,&quot;segment&quot;:10,&quot;curved&quot;:1,&quot;sourcePerimeterSpacing&quot;:0,&quot;targetPerimeterSpacing&quot;:0};" parent="WIyWlLk6GJQsqaUBKTNV-1" vertex="1" collapsed="1">
          <mxGeometry x="291" y="310" width="110" height="50" as="geometry" />
        </mxCell>
        <mxCell id="E31PnU2OZpK3t2RN8RcZ-3" value="" style="edgeStyle=entityRelationEdgeStyle;startArrow=none;endArrow=none;segment=10;curved=1;sourcePerimeterSpacing=0;targetPerimeterSpacing=0;rounded=0;exitX=1;exitY=0.5;exitDx=0;exitDy=0;" parent="WIyWlLk6GJQsqaUBKTNV-1" source="zyUwlcHlA-mbE5VJOiK7-2" target="E31PnU2OZpK3t2RN8RcZ-2" edge="1">
          <mxGeometry relative="1" as="geometry">
            <mxPoint x="220" y="330" as="sourcePoint" />
          </mxGeometry>
        </mxCell>
        <mxCell id="E31PnU2OZpK3t2RN8RcZ-4" value="&lt;font style=&quot;font-size: 14px;&quot;&gt;Введите логин:&lt;br&gt;Пароль:&lt;/font&gt;" style="rounded=1;whiteSpace=wrap;html=1;" parent="WIyWlLk6GJQsqaUBKTNV-1" vertex="1">
          <mxGeometry x="400" y="300" width="180" height="110" as="geometry" />
        </mxCell>
        <mxCell id="iIzILUd4oRXgfsHU6tUW-1" value="" style="endArrow=classic;html=1;rounded=0;exitX=0.5;exitY=1;exitDx=0;exitDy=0;" parent="WIyWlLk6GJQsqaUBKTNV-1" source="E31PnU2OZpK3t2RN8RcZ-4" edge="1">
          <mxGeometry width="50" height="50" relative="1" as="geometry">
            <mxPoint x="390" y="530" as="sourcePoint" />
            <mxPoint x="450" y="580" as="targetPoint" />
          </mxGeometry>
        </mxCell>
        <mxCell id="iIzILUd4oRXgfsHU6tUW-3" value="Проверяем существует ли&lt;br&gt;пользователя с таки данными.&lt;br&gt;&lt;b&gt;UserInterface.is_login_exist(login)&lt;/b&gt;" style="text;html=1;strokeColor=none;fillColor=none;align=left;verticalAlign=top;whiteSpace=wrap;rounded=0;fontSize=14;" parent="WIyWlLk6GJQsqaUBKTNV-1" vertex="1">
          <mxGeometry x="481" y="450" width="189" height="130" as="geometry" />
        </mxCell>
        <mxCell id="iIzILUd4oRXgfsHU6tUW-5" value="" style="endArrow=classic;html=1;rounded=0;" parent="WIyWlLk6GJQsqaUBKTNV-1" edge="1">
          <mxGeometry width="50" height="50" relative="1" as="geometry">
            <mxPoint x="450" y="580" as="sourcePoint" />
            <mxPoint x="260" y="630" as="targetPoint" />
          </mxGeometry>
        </mxCell>
        <mxCell id="iIzILUd4oRXgfsHU6tUW-6" value="" style="endArrow=classic;html=1;rounded=0;" parent="WIyWlLk6GJQsqaUBKTNV-1" edge="1">
          <mxGeometry width="50" height="50" relative="1" as="geometry">
            <mxPoint x="450" y="580" as="sourcePoint" />
            <mxPoint x="510" y="680" as="targetPoint" />
          </mxGeometry>
        </mxCell>
        <mxCell id="iIzILUd4oRXgfsHU6tUW-9" value="Да&lt;br&gt;" style="text;html=1;strokeColor=none;fillColor=none;align=center;verticalAlign=middle;whiteSpace=wrap;rounded=0;" parent="WIyWlLk6GJQsqaUBKTNV-1" vertex="1">
          <mxGeometry x="460" y="600" width="60" height="30" as="geometry" />
        </mxCell>
        <mxCell id="iIzILUd4oRXgfsHU6tUW-10" value="Пользователь с таким login уже существует" style="rounded=1;whiteSpace=wrap;html=1;verticalAlign=top;" parent="WIyWlLk6GJQsqaUBKTNV-1" vertex="1">
          <mxGeometry x="450" y="680" width="150" height="100" as="geometry" />
        </mxCell>
        <mxCell id="iIzILUd4oRXgfsHU6tUW-11" value="Не существует" style="text;html=1;strokeColor=none;fillColor=none;align=center;verticalAlign=middle;whiteSpace=wrap;rounded=0;rotation=-15;" parent="WIyWlLk6GJQsqaUBKTNV-1" vertex="1">
          <mxGeometry x="280" y="570" width="100" height="30" as="geometry" />
        </mxCell>
        <mxCell id="iIzILUd4oRXgfsHU6tUW-12" value="Вы успешно зарегистрировались.&lt;br&gt;Войдите в аккаунт." style="rounded=1;whiteSpace=wrap;html=1;" parent="WIyWlLk6GJQsqaUBKTNV-1" vertex="1">
          <mxGeometry x="105" y="530" width="150" height="150" as="geometry" />
        </mxCell>
        <mxCell id="iIzILUd4oRXgfsHU6tUW-14" value="&lt;font style=&quot;&quot;&gt;Добавляем нового пользователя&lt;br&gt;&lt;span style=&quot;font-size: 14px;&quot;&gt;&lt;b&gt;UserInterface&lt;/b&gt;&lt;/span&gt;&lt;b style=&quot;font-size: 14px;&quot;&gt;.add_new_user(login, password)&lt;/b&gt;&lt;/font&gt;" style="text;html=1;strokeColor=none;fillColor=none;align=left;verticalAlign=top;whiteSpace=wrap;rounded=0;" parent="WIyWlLk6GJQsqaUBKTNV-1" vertex="1">
          <mxGeometry x="60" y="700" width="240" height="70" as="geometry" />
        </mxCell>
        <mxCell id="iIzILUd4oRXgfsHU6tUW-15" value="ок" style="rounded=1;whiteSpace=wrap;html=1;" parent="WIyWlLk6GJQsqaUBKTNV-1" vertex="1">
          <mxGeometry x="150" y="640" width="60" height="20" as="geometry" />
        </mxCell>
        <mxCell id="iIzILUd4oRXgfsHU6tUW-16" value="ок" style="rounded=1;whiteSpace=wrap;html=1;" parent="WIyWlLk6GJQsqaUBKTNV-1" vertex="1">
          <mxGeometry x="497" y="740" width="56" height="20" as="geometry" />
        </mxCell>
        <mxCell id="iIzILUd4oRXgfsHU6tUW-17" value="" style="curved=1;endArrow=classic;html=1;rounded=0;exitX=0.992;exitY=0.594;exitDx=0;exitDy=0;exitPerimeter=0;entryX=1;entryY=0.5;entryDx=0;entryDy=0;" parent="WIyWlLk6GJQsqaUBKTNV-1" source="iIzILUd4oRXgfsHU6tUW-10" target="E31PnU2OZpK3t2RN8RcZ-4" edge="1">
          <mxGeometry width="50" height="50" relative="1" as="geometry">
            <mxPoint x="620" y="730" as="sourcePoint" />
            <mxPoint x="750" y="410" as="targetPoint" />
            <Array as="points">
              <mxPoint x="770" y="500" />
              <mxPoint x="690" y="370" />
            </Array>
          </mxGeometry>
        </mxCell>
        <mxCell id="iIzILUd4oRXgfsHU6tUW-18" value="назад" style="rounded=1;whiteSpace=wrap;html=1;" parent="WIyWlLk6GJQsqaUBKTNV-1" vertex="1">
          <mxGeometry x="414" y="310" width="59" height="20" as="geometry" />
        </mxCell>
        <mxCell id="iIzILUd4oRXgfsHU6tUW-19" value="ок" style="rounded=1;whiteSpace=wrap;html=1;" parent="WIyWlLk6GJQsqaUBKTNV-1" vertex="1">
          <mxGeometry x="460" y="380" width="56" height="20" as="geometry" />
        </mxCell>
        <mxCell id="iIzILUd4oRXgfsHU6tUW-22" value="" style="endArrow=classic;html=1;rounded=0;exitX=0.5;exitY=0;exitDx=0;exitDy=0;entryX=0.5;entryY=1;entryDx=0;entryDy=0;" parent="WIyWlLk6GJQsqaUBKTNV-1" source="iIzILUd4oRXgfsHU6tUW-12" target="WIyWlLk6GJQsqaUBKTNV-3" edge="1">
          <mxGeometry width="50" height="50" relative="1" as="geometry">
            <mxPoint x="140" y="470" as="sourcePoint" />
            <mxPoint x="190" y="420" as="targetPoint" />
          </mxGeometry>
        </mxCell>
        <mxCell id="iIzILUd4oRXgfsHU6tUW-28" style="edgeStyle=entityRelationEdgeStyle;rounded=0;orthogonalLoop=1;jettySize=auto;html=1;startArrow=none;endArrow=none;segment=10;curved=1;sourcePerimeterSpacing=0;targetPerimeterSpacing=0;exitX=1;exitY=1;exitDx=0;exitDy=0;" parent="WIyWlLk6GJQsqaUBKTNV-1" source="iIzILUd4oRXgfsHU6tUW-24" edge="1">
          <mxGeometry relative="1" as="geometry">
            <mxPoint x="460" y="90" as="targetPoint" />
          </mxGeometry>
        </mxCell>
        <mxCell id="iIzILUd4oRXgfsHU6tUW-24" value="Вход" style="whiteSpace=wrap;html=1;shape=partialRectangle;top=0;left=0;bottom=1;right=0;points=[[0,1],[1,1]];fillColor=none;align=center;verticalAlign=bottom;routingCenterY=0.5;snapToPoint=1;recursiveResize=0;autosize=1;treeFolding=1;treeMoving=1;newEdgeStyle={&quot;edgeStyle&quot;:&quot;entityRelationEdgeStyle&quot;,&quot;startArrow&quot;:&quot;none&quot;,&quot;endArrow&quot;:&quot;none&quot;,&quot;segment&quot;:10,&quot;curved&quot;:1,&quot;sourcePerimeterSpacing&quot;:0,&quot;targetPerimeterSpacing&quot;:0};" parent="WIyWlLk6GJQsqaUBKTNV-1" vertex="1">
          <mxGeometry x="205" y="90" width="70" height="30" as="geometry" />
        </mxCell>
        <mxCell id="iIzILUd4oRXgfsHU6tUW-25" value="" style="edgeStyle=entityRelationEdgeStyle;startArrow=none;endArrow=none;segment=10;curved=1;sourcePerimeterSpacing=0;targetPerimeterSpacing=0;rounded=0;exitX=0.5;exitY=0;exitDx=0;exitDy=0;entryX=0;entryY=1;entryDx=0;entryDy=0;" parent="WIyWlLk6GJQsqaUBKTNV-1" source="zyUwlcHlA-mbE5VJOiK7-1" target="iIzILUd4oRXgfsHU6tUW-24" edge="1">
          <mxGeometry relative="1" as="geometry">
            <mxPoint x="140" y="270" as="sourcePoint" />
            <mxPoint x="230" y="190" as="targetPoint" />
          </mxGeometry>
        </mxCell>
        <mxCell id="iIzILUd4oRXgfsHU6tUW-29" value="Пробуем войти в аккаунт&lt;br&gt;&lt;b&gt;UserInterface.try_log_in(login, password)&lt;/b&gt;" style="text;html=1;strokeColor=none;fillColor=none;align=left;verticalAlign=top;whiteSpace=wrap;rounded=0;fontSize=14;" parent="WIyWlLk6GJQsqaUBKTNV-1" vertex="1">
          <mxGeometry x="210" y="120" width="240" height="80" as="geometry" />
        </mxCell>
        <mxCell id="iIzILUd4oRXgfsHU6tUW-30" value="" style="endArrow=classic;html=1;rounded=0;" parent="WIyWlLk6GJQsqaUBKTNV-1" edge="1">
          <mxGeometry width="50" height="50" relative="1" as="geometry">
            <mxPoint x="460" y="90" as="sourcePoint" />
            <mxPoint x="240" y="-10" as="targetPoint" />
          </mxGeometry>
        </mxCell>
        <mxCell id="iIzILUd4oRXgfsHU6tUW-32" value="Неуспешно" style="text;html=1;strokeColor=none;fillColor=none;align=left;verticalAlign=top;whiteSpace=wrap;rounded=0;fontSize=14;" parent="WIyWlLk6GJQsqaUBKTNV-1" vertex="1">
          <mxGeometry x="319" y="10" width="126" height="20" as="geometry" />
        </mxCell>
        <mxCell id="iIzILUd4oRXgfsHU6tUW-33" value="Неверный логин или пароль." style="rounded=1;whiteSpace=wrap;html=1;verticalAlign=top;" parent="WIyWlLk6GJQsqaUBKTNV-1" vertex="1">
          <mxGeometry x="165" y="-100" width="145" height="90" as="geometry" />
        </mxCell>
        <mxCell id="iIzILUd4oRXgfsHU6tUW-34" value="ок" style="rounded=1;whiteSpace=wrap;html=1;" parent="WIyWlLk6GJQsqaUBKTNV-1" vertex="1">
          <mxGeometry x="210" y="-50" width="56" height="20" as="geometry" />
        </mxCell>
        <mxCell id="iIzILUd4oRXgfsHU6tUW-35" value="" style="curved=1;endArrow=classic;html=1;rounded=0;entryX=0;entryY=0.5;entryDx=0;entryDy=0;exitX=0;exitY=0.5;exitDx=0;exitDy=0;" parent="WIyWlLk6GJQsqaUBKTNV-1" source="iIzILUd4oRXgfsHU6tUW-33" target="WIyWlLk6GJQsqaUBKTNV-3" edge="1">
          <mxGeometry width="50" height="50" relative="1" as="geometry">
            <mxPoint x="50" y="120" as="sourcePoint" />
            <mxPoint x="100" y="70" as="targetPoint" />
            <Array as="points">
              <mxPoint x="30" y="70" />
            </Array>
          </mxGeometry>
        </mxCell>
        <mxCell id="iIzILUd4oRXgfsHU6tUW-36" value="" style="endArrow=classic;html=1;rounded=0;" parent="WIyWlLk6GJQsqaUBKTNV-1" edge="1">
          <mxGeometry width="50" height="50" relative="1" as="geometry">
            <mxPoint x="460" y="90" as="sourcePoint" />
            <mxPoint x="860" y="90" as="targetPoint" />
          </mxGeometry>
        </mxCell>
        <mxCell id="iIzILUd4oRXgfsHU6tUW-37" value="Успешно" style="text;html=1;strokeColor=none;fillColor=none;align=left;verticalAlign=top;whiteSpace=wrap;rounded=0;fontSize=14;rotation=0;" parent="WIyWlLk6GJQsqaUBKTNV-1" vertex="1">
          <mxGeometry x="588" y="50" width="126" height="20" as="geometry" />
        </mxCell>
        <mxCell id="iIzILUd4oRXgfsHU6tUW-39" value="Создаём экземпляр класса&amp;nbsp;&lt;b&gt;UserInterface&lt;/b&gt;&lt;br&gt;&lt;b&gt;user_interface = UserInterface(login, password)&lt;/b&gt;" style="text;html=1;strokeColor=none;fillColor=none;align=left;verticalAlign=top;whiteSpace=wrap;rounded=0;fontSize=14;" parent="WIyWlLk6GJQsqaUBKTNV-1" vertex="1">
          <mxGeometry x="481" y="100" width="340" height="60" as="geometry" />
        </mxCell>
        <mxCell id="zyUwlcHlA-mbE5VJOiK7-1" value="Вход" style="rounded=1;whiteSpace=wrap;html=1;" parent="WIyWlLk6GJQsqaUBKTNV-1" vertex="1">
          <mxGeometry x="110" y="290" width="90" height="30" as="geometry" />
        </mxCell>
        <mxCell id="zyUwlcHlA-mbE5VJOiK7-2" value="Регистрация" style="rounded=1;whiteSpace=wrap;html=1;" parent="WIyWlLk6GJQsqaUBKTNV-1" vertex="1">
          <mxGeometry x="111" y="328" width="90" height="30" as="geometry" />
        </mxCell>
        <mxCell id="zyUwlcHlA-mbE5VJOiK7-3" value="" style="shape=stencil(fZbdcgIhDIWfZm8zQAg/17Z9j85U606tdqz9e/tmZ0c0uJ47xP0I5JwEBl59bp8/1kNwn6fj4W39M76ctgM/DCGM++36OJ50NPDjwKvN4bh+PR6+9i/z74/n6ctp9H74nlb4nbmSKZeJCu5vngmZ6jzzNAO7cX8FVKEsBuBKrgKg9oAE8gkCbLeUhEoEQKSUDZDLeWYRKIl8MEDRmHwfyBrBG6Amyu4+kDxxMoB3jhwgYu7TVAsVkFcWCs4CTBEoF4RctKeOxHIf8IXYpikHikAIf+MNUW94AGSSaoAoFIE3AlOyeWU+p2E5S9yfQZcQILVuQOwZdJNoS9Ls3wA5u2XZTIHECqeJ9kDpSaauRiNVcAY1QhdBzeLBli5WazpkSsBLV25uRaqWRyFawTQzRRIQYirJzq5atkBqLfouwqUxLBepthWb10vrWZY6UOAeyKCCtDV625mm9gmUC4Wc3VLJMMIE1BsA2FW9JraVlQB7n3c9oMKhCLEvIM1zBPZ25/umNQ1tVEC2G+fFCC8g398O2hNQuQlVu752DBfA+q0ptnqO5JFmeuIuo9DY7KjY71UxdJV4EntifPWorW++R/dC4t7V3DlIB5cHx2bc7eb3yvX//QNFp+bHDT/+Aw==);lineShape=1;" parent="WIyWlLk6GJQsqaUBKTNV-1" vertex="1">
          <mxGeometry x="422.4771148874827" y="290.3394435041321" width="3.33752840865405" height="3.332311583112317" as="geometry" />
        </mxCell>
        <mxCell id="zyUwlcHlA-mbE5VJOiK7-4" value="" style="rounded=1;whiteSpace=wrap;html=1;" parent="WIyWlLk6GJQsqaUBKTNV-1" vertex="1">
          <mxGeometry x="860" y="20" width="210" height="200" as="geometry" />
        </mxCell>
        <mxCell id="zyUwlcHlA-mbE5VJOiK7-5" value="Мои доски" style="rounded=1;whiteSpace=wrap;html=1;" parent="WIyWlLk6GJQsqaUBKTNV-1" vertex="1">
          <mxGeometry x="920" y="45" width="90" height="30" as="geometry" />
        </mxCell>
        <mxCell id="zyUwlcHlA-mbE5VJOiK7-6" value="Общие доски" style="rounded=1;whiteSpace=wrap;html=1;" parent="WIyWlLk6GJQsqaUBKTNV-1" vertex="1">
          <mxGeometry x="920" y="100" width="90" height="30" as="geometry" />
        </mxCell>
        <mxCell id="wRUbBjNaw91ZyXMWhW6x-0" value="Создать доску" style="rounded=1;whiteSpace=wrap;html=1;" parent="WIyWlLk6GJQsqaUBKTNV-1" vertex="1">
          <mxGeometry x="920" y="160" width="90" height="30" as="geometry" />
        </mxCell>
        <mxCell id="M_WLJE1RYDmng-bWjuxJ-0" value="" style="endArrow=classic;html=1;rounded=0;exitX=0.5;exitY=1;exitDx=0;exitDy=0;entryX=0.5;entryY=0;entryDx=0;entryDy=0;" parent="WIyWlLk6GJQsqaUBKTNV-1" source="wRUbBjNaw91ZyXMWhW6x-0" target="M_WLJE1RYDmng-bWjuxJ-1" edge="1">
          <mxGeometry width="50" height="50" relative="1" as="geometry">
            <mxPoint x="990" y="350" as="sourcePoint" />
            <mxPoint x="1030" y="420" as="targetPoint" />
          </mxGeometry>
        </mxCell>
        <mxCell id="M_WLJE1RYDmng-bWjuxJ-1" value="&lt;font style=&quot;font-size: 14px;&quot;&gt;Имя доски:&lt;br&gt;&lt;br&gt;Тип доски: Част/Общ&lt;br&gt;&amp;nbsp;&lt;br&gt;&lt;br&gt;&lt;/font&gt;" style="rounded=1;whiteSpace=wrap;html=1;verticalAlign=top;" parent="WIyWlLk6GJQsqaUBKTNV-1" vertex="1">
          <mxGeometry x="950" y="430" width="250" height="190" as="geometry" />
        </mxCell>
        <mxCell id="M_WLJE1RYDmng-bWjuxJ-2" value="Создать доску" style="rounded=1;whiteSpace=wrap;html=1;" parent="WIyWlLk6GJQsqaUBKTNV-1" vertex="1">
          <mxGeometry x="1030" y="520" width="90" height="30" as="geometry" />
        </mxCell>
        <mxCell id="-eFYDoCDFSSSVjLZ1QG_-0" value="Отмена" style="rounded=1;whiteSpace=wrap;html=1;" parent="WIyWlLk6GJQsqaUBKTNV-1" vertex="1">
          <mxGeometry x="1030" y="570" width="90" height="30" as="geometry" />
        </mxCell>
        <mxCell id="-eFYDoCDFSSSVjLZ1QG_-3" value="" style="endArrow=classic;html=1;rounded=0;exitX=1;exitY=0.5;exitDx=0;exitDy=0;" parent="WIyWlLk6GJQsqaUBKTNV-1" source="M_WLJE1RYDmng-bWjuxJ-2" edge="1">
          <mxGeometry width="50" height="50" relative="1" as="geometry">
            <mxPoint x="1340" y="510" as="sourcePoint" />
            <mxPoint x="1650" y="520" as="targetPoint" />
          </mxGeometry>
        </mxCell>
        <mxCell id="-eFYDoCDFSSSVjLZ1QG_-4" value="&lt;br&gt;&lt;b&gt;user_interface.create_desk(self, desk_name, desk_type)&lt;/b&gt;" style="text;html=1;strokeColor=none;fillColor=none;align=left;verticalAlign=top;whiteSpace=wrap;rounded=0;fontSize=14;" parent="WIyWlLk6GJQsqaUBKTNV-1" vertex="1">
          <mxGeometry x="1210" y="470" width="340" height="60" as="geometry" />
        </mxCell>
        <mxCell id="8D1wFOV9cuVaWjOkEkmh-0" value="" style="curved=1;endArrow=classic;html=1;rounded=0;entryX=0.958;entryY=0.964;entryDx=0;entryDy=0;entryPerimeter=0;exitX=1;exitY=0.5;exitDx=0;exitDy=0;" parent="WIyWlLk6GJQsqaUBKTNV-1" source="-eFYDoCDFSSSVjLZ1QG_-0" target="zyUwlcHlA-mbE5VJOiK7-4" edge="1">
          <mxGeometry width="50" height="50" relative="1" as="geometry">
            <mxPoint x="1560" y="660" as="sourcePoint" />
            <mxPoint x="1530" y="250" as="targetPoint" />
            <Array as="points">
              <mxPoint x="1670" y="610" />
              <mxPoint x="1630" y="450" />
              <mxPoint x="1480" y="250" />
            </Array>
          </mxGeometry>
        </mxCell>
        <mxCell id="8D1wFOV9cuVaWjOkEkmh-1" value="" style="endArrow=classic;html=1;rounded=0;exitX=1;exitY=0.5;exitDx=0;exitDy=0;" parent="WIyWlLk6GJQsqaUBKTNV-1" source="zyUwlcHlA-mbE5VJOiK7-6" edge="1">
          <mxGeometry width="50" height="50" relative="1" as="geometry">
            <mxPoint x="1180" y="110" as="sourcePoint" />
            <mxPoint x="1470" y="120" as="targetPoint" />
          </mxGeometry>
        </mxCell>
        <mxCell id="8D1wFOV9cuVaWjOkEkmh-2" value="" style="endArrow=classic;html=1;rounded=0;exitX=1;exitY=0.5;exitDx=0;exitDy=0;" parent="WIyWlLk6GJQsqaUBKTNV-1" edge="1">
          <mxGeometry width="50" height="50" relative="1" as="geometry">
            <mxPoint x="1010" y="55" as="sourcePoint" />
            <mxPoint x="1470" y="60" as="targetPoint" />
          </mxGeometry>
        </mxCell>
        <mxCell id="8D1wFOV9cuVaWjOkEkmh-3" value="&lt;br&gt;&lt;b&gt;user_interface.get_owned_desks()&lt;/b&gt;" style="text;html=1;strokeColor=none;fillColor=none;align=left;verticalAlign=top;whiteSpace=wrap;rounded=0;fontSize=14;" parent="WIyWlLk6GJQsqaUBKTNV-1" vertex="1">
          <mxGeometry x="1130" y="10" width="260" height="60" as="geometry" />
        </mxCell>
        <mxCell id="8D1wFOV9cuVaWjOkEkmh-5" value="&lt;br&gt;&lt;b&gt;user_interface.get_public_desks&lt;/b&gt;&lt;b&gt;()&lt;/b&gt;" style="text;html=1;strokeColor=none;fillColor=none;align=left;verticalAlign=top;whiteSpace=wrap;rounded=0;fontSize=14;" parent="WIyWlLk6GJQsqaUBKTNV-1" vertex="1">
          <mxGeometry x="1120" y="70" width="270" height="60" as="geometry" />
        </mxCell>
        <mxCell id="8D1wFOV9cuVaWjOkEkmh-8" value="" style="endArrow=classic;html=1;rounded=0;" parent="WIyWlLk6GJQsqaUBKTNV-1" edge="1">
          <mxGeometry width="50" height="50" relative="1" as="geometry">
            <mxPoint x="1470" y="60" as="sourcePoint" />
            <mxPoint x="1540" y="90" as="targetPoint" />
          </mxGeometry>
        </mxCell>
        <mxCell id="8D1wFOV9cuVaWjOkEkmh-9" value="" style="endArrow=classic;html=1;rounded=0;" parent="WIyWlLk6GJQsqaUBKTNV-1" edge="1">
          <mxGeometry width="50" height="50" relative="1" as="geometry">
            <mxPoint x="1460" y="120" as="sourcePoint" />
            <mxPoint x="1540" y="90" as="targetPoint" />
          </mxGeometry>
        </mxCell>
        <mxCell id="8D1wFOV9cuVaWjOkEkmh-10" value="" style="endArrow=classic;html=1;rounded=0;" parent="WIyWlLk6GJQsqaUBKTNV-1" edge="1">
          <mxGeometry width="50" height="50" relative="1" as="geometry">
            <mxPoint x="1540" y="90" as="sourcePoint" />
            <mxPoint x="1540" y="-20" as="targetPoint" />
          </mxGeometry>
        </mxCell>
        <mxCell id="8D1wFOV9cuVaWjOkEkmh-11" value="&lt;font style=&quot;font-size: 14px;&quot;&gt;Нет досок&lt;/font&gt;" style="rounded=1;whiteSpace=wrap;html=1;verticalAlign=top;" parent="WIyWlLk6GJQsqaUBKTNV-1" vertex="1">
          <mxGeometry x="1430" y="-240" width="270" height="220" as="geometry" />
        </mxCell>
        <mxCell id="8D1wFOV9cuVaWjOkEkmh-12" value="Создать" style="rounded=1;whiteSpace=wrap;html=1;" parent="WIyWlLk6GJQsqaUBKTNV-1" vertex="1">
          <mxGeometry x="1520" y="-180" width="90" height="30" as="geometry" />
        </mxCell>
        <mxCell id="8D1wFOV9cuVaWjOkEkmh-13" value="Назад" style="rounded=1;whiteSpace=wrap;html=1;" parent="WIyWlLk6GJQsqaUBKTNV-1" vertex="1">
          <mxGeometry x="1520" y="-100" width="90" height="30" as="geometry" />
        </mxCell>
        <mxCell id="8D1wFOV9cuVaWjOkEkmh-15" value="" style="endArrow=classic;html=1;rounded=0;entryX=0.75;entryY=0;entryDx=0;entryDy=0;exitX=0;exitY=0.75;exitDx=0;exitDy=0;" parent="WIyWlLk6GJQsqaUBKTNV-1" source="8D1wFOV9cuVaWjOkEkmh-12" target="M_WLJE1RYDmng-bWjuxJ-1" edge="1">
          <mxGeometry width="50" height="50" relative="1" as="geometry">
            <mxPoint x="1300" y="-130" as="sourcePoint" />
            <mxPoint x="1350" y="-180" as="targetPoint" />
          </mxGeometry>
        </mxCell>
        <mxCell id="8D1wFOV9cuVaWjOkEkmh-16" value="" style="endArrow=classic;html=1;rounded=0;entryX=0.568;entryY=-0.005;entryDx=0;entryDy=0;entryPerimeter=0;exitX=0;exitY=0.5;exitDx=0;exitDy=0;" parent="WIyWlLk6GJQsqaUBKTNV-1" source="8D1wFOV9cuVaWjOkEkmh-13" target="zyUwlcHlA-mbE5VJOiK7-4" edge="1">
          <mxGeometry width="50" height="50" relative="1" as="geometry">
            <mxPoint x="1140" y="-60" as="sourcePoint" />
            <mxPoint x="1190" y="-110" as="targetPoint" />
          </mxGeometry>
        </mxCell>
        <mxCell id="8D1wFOV9cuVaWjOkEkmh-17" value="" style="endArrow=classic;html=1;rounded=0;" parent="WIyWlLk6GJQsqaUBKTNV-1" edge="1">
          <mxGeometry width="50" height="50" relative="1" as="geometry">
            <mxPoint x="1540" y="90" as="sourcePoint" />
            <mxPoint x="1850" y="90" as="targetPoint" />
          </mxGeometry>
        </mxCell>
        <mxCell id="8D1wFOV9cuVaWjOkEkmh-18" value="" style="rounded=1;whiteSpace=wrap;html=1;" parent="WIyWlLk6GJQsqaUBKTNV-1" vertex="1">
          <mxGeometry x="1850" y="-90" width="470" height="390" as="geometry" />
        </mxCell>
        <mxCell id="8D1wFOV9cuVaWjOkEkmh-19" value="Назад" style="rounded=1;whiteSpace=wrap;html=1;" parent="WIyWlLk6GJQsqaUBKTNV-1" vertex="1">
          <mxGeometry x="1890" y="-60" width="100" height="40" as="geometry" />
        </mxCell>
        <mxCell id="8D1wFOV9cuVaWjOkEkmh-20" value="Доска 1" style="rounded=1;whiteSpace=wrap;html=1;" parent="WIyWlLk6GJQsqaUBKTNV-1" vertex="1">
          <mxGeometry x="2019" y="10" width="132" height="40" as="geometry" />
        </mxCell>
        <mxCell id="8D1wFOV9cuVaWjOkEkmh-22" value="Доска 2" style="rounded=1;whiteSpace=wrap;html=1;" parent="WIyWlLk6GJQsqaUBKTNV-1" vertex="1">
          <mxGeometry x="2019" y="75" width="132" height="40" as="geometry" />
        </mxCell>
        <mxCell id="8D1wFOV9cuVaWjOkEkmh-23" value="Доска 3" style="rounded=1;whiteSpace=wrap;html=1;" parent="WIyWlLk6GJQsqaUBKTNV-1" vertex="1">
          <mxGeometry x="2019" y="140" width="132" height="40" as="geometry" />
        </mxCell>
        <mxCell id="8D1wFOV9cuVaWjOkEkmh-24" value="Доска 4" style="rounded=1;whiteSpace=wrap;html=1;" parent="WIyWlLk6GJQsqaUBKTNV-1" vertex="1">
          <mxGeometry x="2019" y="210" width="132" height="40" as="geometry" />
        </mxCell>
        <mxCell id="8D1wFOV9cuVaWjOkEkmh-25" value="" style="curved=1;endArrow=classic;html=1;rounded=0;entryX=0.5;entryY=0;entryDx=0;entryDy=0;exitX=0;exitY=0;exitDx=0;exitDy=0;" parent="WIyWlLk6GJQsqaUBKTNV-1" source="8D1wFOV9cuVaWjOkEkmh-19" target="zyUwlcHlA-mbE5VJOiK7-4" edge="1">
          <mxGeometry width="50" height="50" relative="1" as="geometry">
            <mxPoint x="1440" y="-370" as="sourcePoint" />
            <mxPoint x="1490" y="-420" as="targetPoint" />
            <Array as="points">
              <mxPoint x="1750" y="-290" />
              <mxPoint x="1460" y="-410" />
            </Array>
          </mxGeometry>
        </mxCell>
        <mxCell id="7JM-nRXB1g4NF5A1_JZR-0" value="" style="endArrow=classic;html=1;rounded=0;exitX=0.5;exitY=1;exitDx=0;exitDy=0;entryX=0.464;entryY=0.001;entryDx=0;entryDy=0;entryPerimeter=0;" parent="WIyWlLk6GJQsqaUBKTNV-1" source="8D1wFOV9cuVaWjOkEkmh-24" target="7JM-nRXB1g4NF5A1_JZR-4" edge="1">
          <mxGeometry width="50" height="50" relative="1" as="geometry">
            <mxPoint x="2140" y="480" as="sourcePoint" />
            <mxPoint x="2100" y="590" as="targetPoint" />
          </mxGeometry>
        </mxCell>
        <mxCell id="7JM-nRXB1g4NF5A1_JZR-1" value="desk_id=77" style="text;html=1;strokeColor=none;fillColor=none;align=center;verticalAlign=middle;whiteSpace=wrap;rounded=0;" parent="WIyWlLk6GJQsqaUBKTNV-1" vertex="1">
          <mxGeometry x="2170" y="215" width="60" height="30" as="geometry" />
        </mxCell>
        <mxCell id="7JM-nRXB1g4NF5A1_JZR-4" value="" style="rounded=1;whiteSpace=wrap;html=1;" parent="WIyWlLk6GJQsqaUBKTNV-1" vertex="1">
          <mxGeometry x="1909" y="585" width="551" height="585" as="geometry" />
        </mxCell>
        <mxCell id="7JM-nRXB1g4NF5A1_JZR-5" value="Доска 4 (название доски)" style="rounded=1;whiteSpace=wrap;html=1;" parent="WIyWlLk6GJQsqaUBKTNV-1" vertex="1">
          <mxGeometry x="2125" y="610" width="150" height="60" as="geometry" />
        </mxCell>
        <mxCell id="7JM-nRXB1g4NF5A1_JZR-6" value="Назад" style="rounded=1;whiteSpace=wrap;html=1;" parent="WIyWlLk6GJQsqaUBKTNV-1" vertex="1">
          <mxGeometry x="1950" y="620" width="81" height="30" as="geometry" />
        </mxCell>
        <mxCell id="7JM-nRXB1g4NF5A1_JZR-7" value="" style="endArrow=classic;html=1;rounded=0;exitX=0.5;exitY=0;exitDx=0;exitDy=0;entryX=0.25;entryY=1;entryDx=0;entryDy=0;" parent="WIyWlLk6GJQsqaUBKTNV-1" source="7JM-nRXB1g4NF5A1_JZR-6" target="8D1wFOV9cuVaWjOkEkmh-18" edge="1">
          <mxGeometry width="50" height="50" relative="1" as="geometry">
            <mxPoint x="1890" y="430" as="sourcePoint" />
            <mxPoint x="1940" y="380" as="targetPoint" />
          </mxGeometry>
        </mxCell>
        <mxCell id="7JM-nRXB1g4NF5A1_JZR-8" value="" style="endArrow=none;html=1;rounded=0;exitX=1;exitY=0.5;exitDx=0;exitDy=0;" parent="WIyWlLk6GJQsqaUBKTNV-1" source="7JM-nRXB1g4NF5A1_JZR-5" edge="1">
          <mxGeometry width="50" height="50" relative="1" as="geometry">
            <mxPoint x="2370" y="640" as="sourcePoint" />
            <mxPoint x="2540" y="410" as="targetPoint" />
          </mxGeometry>
        </mxCell>
        <mxCell id="7JM-nRXB1g4NF5A1_JZR-9" value="Можно изменить название доски&lt;br&gt;&lt;b&gt;user_interface.change_desk_name(self, desk_id, new_desk_name)&lt;/b&gt;&lt;br&gt;" style="text;html=1;strokeColor=none;fillColor=none;align=left;verticalAlign=top;whiteSpace=wrap;rounded=0;fontSize=14;" parent="WIyWlLk6GJQsqaUBKTNV-1" vertex="1">
          <mxGeometry x="2460" y="365" width="460" height="45" as="geometry" />
        </mxCell>
        <mxCell id="TJN2OtoQQ64dKEX67Wm8-0" value="" style="rounded=1;whiteSpace=wrap;html=1;" vertex="1" parent="WIyWlLk6GJQsqaUBKTNV-1">
          <mxGeometry x="1950" y="800" width="150" height="310" as="geometry" />
        </mxCell>
        <mxCell id="TJN2OtoQQ64dKEX67Wm8-1" value="Столбец 1&lt;br&gt;(название столбца)" style="rounded=1;whiteSpace=wrap;html=1;" vertex="1" parent="WIyWlLk6GJQsqaUBKTNV-1">
          <mxGeometry x="1975" y="740" width="100" height="50" as="geometry" />
        </mxCell>
        <mxCell id="7JM-nRXB1g4NF5A1_JZR-3" value="&lt;br&gt;&lt;b&gt;user_interface.can_edit_desk(desk_id=77)&lt;/b&gt;&lt;br&gt;Если у пользователя нет прав на редактирования, то он может только смотреть доску. (не может ничего добавлять и редактировать)&lt;br&gt;(Только для общественных досок)" style="text;html=1;strokeColor=none;fillColor=none;align=left;verticalAlign=top;whiteSpace=wrap;rounded=0;fontSize=14;" parent="WIyWlLk6GJQsqaUBKTNV-1" vertex="1">
          <mxGeometry x="2019" y="317.5" width="320" height="140" as="geometry" />
        </mxCell>
        <mxCell id="TJN2OtoQQ64dKEX67Wm8-2" value="Можно изменить название column&lt;br&gt;&lt;b&gt;user_interface.change_column_name(self, column_id, new_column_name)&lt;/b&gt;" style="text;html=1;strokeColor=none;fillColor=none;align=left;verticalAlign=top;whiteSpace=wrap;rounded=0;fontSize=14;" vertex="1" parent="WIyWlLk6GJQsqaUBKTNV-1">
          <mxGeometry x="1460" y="727.5" width="380" height="45" as="geometry" />
        </mxCell>
        <mxCell id="TJN2OtoQQ64dKEX67Wm8-3" value="" style="endArrow=none;html=1;rounded=0;entryX=0;entryY=0.5;entryDx=0;entryDy=0;exitX=1;exitY=0.5;exitDx=0;exitDy=0;" edge="1" parent="WIyWlLk6GJQsqaUBKTNV-1" source="TJN2OtoQQ64dKEX67Wm8-2" target="TJN2OtoQQ64dKEX67Wm8-1">
          <mxGeometry width="50" height="50" relative="1" as="geometry">
            <mxPoint x="1810" y="710" as="sourcePoint" />
            <mxPoint x="1860" y="660" as="targetPoint" />
          </mxGeometry>
        </mxCell>
        <mxCell id="mA7d-A9AKcgR1vi9V8_P-0" value="Карточка 1 (card_title)&lt;br&gt;Номер карточки (в столбце): 0" style="rounded=1;whiteSpace=wrap;html=1;fillColor=#d5e8d4;strokeColor=#82b366;" vertex="1" parent="WIyWlLk6GJQsqaUBKTNV-1">
          <mxGeometry x="1965" y="810" width="125" height="60" as="geometry" />
        </mxCell>
        <mxCell id="mA7d-A9AKcgR1vi9V8_P-1" value="Карточка 3&lt;br&gt;Номер карточки: 2" style="rounded=1;whiteSpace=wrap;html=1;fillColor=#f8cecc;strokeColor=#b85450;" vertex="1" parent="WIyWlLk6GJQsqaUBKTNV-1">
          <mxGeometry x="1965" y="960" width="120" height="60" as="geometry" />
        </mxCell>
        <mxCell id="mA7d-A9AKcgR1vi9V8_P-2" value="Карточка 2&lt;br&gt;Номер карточки: 1" style="rounded=1;whiteSpace=wrap;html=1;fillColor=#fff2cc;strokeColor=#d6b656;" vertex="1" parent="WIyWlLk6GJQsqaUBKTNV-1">
          <mxGeometry x="1965" y="885" width="120" height="60" as="geometry" />
        </mxCell>
        <mxCell id="toA1lWc5eNlxfPyqDgul-0" value="" style="rounded=1;whiteSpace=wrap;html=1;" vertex="1" parent="WIyWlLk6GJQsqaUBKTNV-1">
          <mxGeometry x="2120" y="800" width="150" height="260" as="geometry" />
        </mxCell>
        <mxCell id="toA1lWc5eNlxfPyqDgul-1" value="Столбец 2&lt;br&gt;(название столбца)" style="rounded=1;whiteSpace=wrap;html=1;" vertex="1" parent="WIyWlLk6GJQsqaUBKTNV-1">
          <mxGeometry x="2145" y="740" width="100" height="50" as="geometry" />
        </mxCell>
        <mxCell id="toA1lWc5eNlxfPyqDgul-2" value="Карточка 44" style="rounded=1;whiteSpace=wrap;html=1;fillColor=#d5e8d4;strokeColor=#82b366;" vertex="1" parent="WIyWlLk6GJQsqaUBKTNV-1">
          <mxGeometry x="2135" y="810" width="125" height="60" as="geometry" />
        </mxCell>
        <mxCell id="toA1lWc5eNlxfPyqDgul-5" value="Добавить карточку" style="rounded=1;whiteSpace=wrap;html=1;" vertex="1" parent="WIyWlLk6GJQsqaUBKTNV-1">
          <mxGeometry x="2135" y="970" width="125" height="60" as="geometry" />
        </mxCell>
        <mxCell id="toA1lWc5eNlxfPyqDgul-6" value="Добавить карточку" style="rounded=1;whiteSpace=wrap;html=1;" vertex="1" parent="WIyWlLk6GJQsqaUBKTNV-1">
          <mxGeometry x="1962.5" y="1030" width="125" height="60" as="geometry" />
        </mxCell>
        <mxCell id="toA1lWc5eNlxfPyqDgul-7" value="Добавить столбец (колонку)" style="rounded=1;whiteSpace=wrap;html=1;" vertex="1" parent="WIyWlLk6GJQsqaUBKTNV-1">
          <mxGeometry x="2300" y="735" width="125" height="60" as="geometry" />
        </mxCell>
        <mxCell id="toA1lWc5eNlxfPyqDgul-8" value="Можно удалить столбец&lt;br&gt;&lt;b&gt;user_interface.del_column(self, column_id)&lt;/b&gt;" style="text;html=1;strokeColor=none;fillColor=none;align=left;verticalAlign=top;whiteSpace=wrap;rounded=0;fontSize=14;" vertex="1" parent="WIyWlLk6GJQsqaUBKTNV-1">
          <mxGeometry x="1450" y="825" width="310" height="45" as="geometry" />
        </mxCell>
        <mxCell id="toA1lWc5eNlxfPyqDgul-9" value="" style="endArrow=none;html=1;rounded=0;entryX=0;entryY=0.5;entryDx=0;entryDy=0;exitX=1;exitY=0.5;exitDx=0;exitDy=0;" edge="1" parent="WIyWlLk6GJQsqaUBKTNV-1" source="toA1lWc5eNlxfPyqDgul-8" target="TJN2OtoQQ64dKEX67Wm8-1">
          <mxGeometry width="50" height="50" relative="1" as="geometry">
            <mxPoint x="1840" y="800" as="sourcePoint" />
            <mxPoint x="1909" y="865" as="targetPoint" />
          </mxGeometry>
        </mxCell>
        <mxCell id="toA1lWc5eNlxfPyqDgul-10" value="Можно удалить доску (только для частных)&lt;br&gt;&lt;b&gt;user_interface.del_desk(self, desk_id)&lt;/b&gt;" style="text;html=1;strokeColor=none;fillColor=none;align=left;verticalAlign=top;whiteSpace=wrap;rounded=0;fontSize=14;" vertex="1" parent="WIyWlLk6GJQsqaUBKTNV-1">
          <mxGeometry x="2410" y="130" width="310" height="45" as="geometry" />
        </mxCell>
        <mxCell id="toA1lWc5eNlxfPyqDgul-11" value="" style="endArrow=none;html=1;rounded=0;entryX=1;entryY=0.5;entryDx=0;entryDy=0;exitX=0;exitY=0.5;exitDx=0;exitDy=0;" edge="1" parent="WIyWlLk6GJQsqaUBKTNV-1" source="toA1lWc5eNlxfPyqDgul-10" target="8D1wFOV9cuVaWjOkEkmh-23">
          <mxGeometry width="50" height="50" relative="1" as="geometry">
            <mxPoint x="2490" y="30" as="sourcePoint" />
            <mxPoint x="2540" y="-20" as="targetPoint" />
          </mxGeometry>
        </mxCell>
        <mxCell id="toA1lWc5eNlxfPyqDgul-12" value="Можно добавить столбец&lt;br&gt;&lt;b&gt;user_interface.add_column_to_desk(self, desk_id, column_name)&lt;/b&gt;" style="text;html=1;strokeColor=none;fillColor=none;align=left;verticalAlign=top;whiteSpace=wrap;rounded=0;fontSize=14;" vertex="1" parent="WIyWlLk6GJQsqaUBKTNV-1">
          <mxGeometry x="2550" y="735" width="450" height="45" as="geometry" />
        </mxCell>
        <mxCell id="toA1lWc5eNlxfPyqDgul-13" value="" style="endArrow=none;html=1;rounded=0;entryX=1;entryY=0.5;entryDx=0;entryDy=0;exitX=0;exitY=0.5;exitDx=0;exitDy=0;" edge="1" parent="WIyWlLk6GJQsqaUBKTNV-1" source="toA1lWc5eNlxfPyqDgul-12" target="toA1lWc5eNlxfPyqDgul-7">
          <mxGeometry width="50" height="50" relative="1" as="geometry">
            <mxPoint x="2630" y="880" as="sourcePoint" />
            <mxPoint x="2680" y="830" as="targetPoint" />
          </mxGeometry>
        </mxCell>
        <mxCell id="M1mfvdJo-v7EVjdGmkLB-0" value="&lt;font style=&quot;font-size: 14px;&quot;&gt;От статуса карточки зависит её цвет&lt;br&gt;0 - по умолчанию (серый)&lt;br&gt;1 - Зелёный&lt;br&gt;2 - Жёлтый&lt;br&gt;3 - Красный&lt;/font&gt;" style="text;html=1;strokeColor=none;fillColor=none;align=left;verticalAlign=top;whiteSpace=wrap;rounded=0;" vertex="1" parent="WIyWlLk6GJQsqaUBKTNV-1">
          <mxGeometry x="2560" y="870" width="310" height="90" as="geometry" />
        </mxCell>
        <mxCell id="D5M3w3qXesDa4TzXThSe-0" value="Можно добавить карточку&lt;br&gt;&lt;b&gt;user_interface.add_card_to_column(self, card_title, card_status, card_desk_id, card_column_id)&lt;/b&gt;" style="text;html=1;strokeColor=none;fillColor=none;align=left;verticalAlign=top;whiteSpace=wrap;rounded=0;fontSize=14;" vertex="1" parent="WIyWlLk6GJQsqaUBKTNV-1">
          <mxGeometry x="1460" y="960" width="290" height="90" as="geometry" />
        </mxCell>
        <mxCell id="D5M3w3qXesDa4TzXThSe-1" value="" style="endArrow=none;html=1;rounded=0;entryX=0;entryY=0.5;entryDx=0;entryDy=0;exitX=1;exitY=0.5;exitDx=0;exitDy=0;" edge="1" parent="WIyWlLk6GJQsqaUBKTNV-1" source="D5M3w3qXesDa4TzXThSe-0" target="toA1lWc5eNlxfPyqDgul-6">
          <mxGeometry width="50" height="50" relative="1" as="geometry">
            <mxPoint x="1810" y="1050" as="sourcePoint" />
            <mxPoint x="1860" y="1000" as="targetPoint" />
          </mxGeometry>
        </mxCell>
        <mxCell id="D5M3w3qXesDa4TzXThSe-2" value="" style="endArrow=none;html=1;rounded=0;exitX=0.75;exitY=0;exitDx=0;exitDy=0;" edge="1" parent="WIyWlLk6GJQsqaUBKTNV-1" source="D5M3w3qXesDa4TzXThSe-3" target="mA7d-A9AKcgR1vi9V8_P-1">
          <mxGeometry width="50" height="50" relative="1" as="geometry">
            <mxPoint x="1750" y="1150" as="sourcePoint" />
            <mxPoint x="1850" y="1150" as="targetPoint" />
          </mxGeometry>
        </mxCell>
        <mxCell id="D5M3w3qXesDa4TzXThSe-3" value="Номер карточки отображать не нужно, эта информация нужна для перемещения карточек между столбцами" style="text;html=1;strokeColor=none;fillColor=none;align=left;verticalAlign=top;whiteSpace=wrap;rounded=0;fontSize=14;" vertex="1" parent="WIyWlLk6GJQsqaUBKTNV-1">
          <mxGeometry x="1495" y="1130" width="310" height="80" as="geometry" />
        </mxCell>
        <mxCell id="xa-Z8eHpCaBiEkYPWIjC-0" value="card title here" style="rounded=1;whiteSpace=wrap;html=1;" vertex="1" parent="WIyWlLk6GJQsqaUBKTNV-1">
          <mxGeometry x="2132.5" y="890" width="125" height="60" as="geometry" />
        </mxCell>
        <mxCell id="xa-Z8eHpCaBiEkYPWIjC-2" value="" style="ellipse;whiteSpace=wrap;html=1;" vertex="1" parent="WIyWlLk6GJQsqaUBKTNV-1">
          <mxGeometry x="1994.5" y="465" width="380" height="80" as="geometry" />
        </mxCell>
        <mxCell id="xa-Z8eHpCaBiEkYPWIjC-1" value="Карточки получаем:&amp;nbsp;&lt;br&gt;&lt;b&gt;user_interface.get_desk_card(self, desk_id)&lt;/b&gt;" style="text;html=1;strokeColor=none;fillColor=none;align=left;verticalAlign=top;whiteSpace=wrap;rounded=0;fontSize=14;" vertex="1" parent="WIyWlLk6GJQsqaUBKTNV-1">
          <mxGeometry x="2054" y="475" width="290" height="90" as="geometry" />
        </mxCell>
        <mxCell id="OnWpnU2J5oESULf1WUZZ-0" value="" style="rounded=1;whiteSpace=wrap;html=1;fillColor=#d5e8d4;strokeColor=#82b366;" vertex="1" parent="WIyWlLk6GJQsqaUBKTNV-1">
          <mxGeometry x="1975" y="1360" width="405" height="460" as="geometry" />
        </mxCell>
        <mxCell id="OnWpnU2J5oESULf1WUZZ-1" value="&lt;span style=&quot;font-size: 14px;&quot;&gt;Заголовок карточки&lt;/span&gt;" style="rounded=1;whiteSpace=wrap;html=1;" vertex="1" parent="WIyWlLk6GJQsqaUBKTNV-1">
          <mxGeometry x="2070" y="1410" width="200" height="60" as="geometry" />
        </mxCell>
        <mxCell id="OnWpnU2J5oESULf1WUZZ-2" value="&lt;span style=&quot;font-size: 14px;&quot;&gt;Текст карточки&lt;/span&gt;" style="rounded=1;whiteSpace=wrap;html=1;" vertex="1" parent="WIyWlLk6GJQsqaUBKTNV-1">
          <mxGeometry x="2048.75" y="1510" width="242.5" height="150" as="geometry" />
        </mxCell>
        <mxCell id="bWu5x660F3Fy9pcuNLfG-1" value="&lt;span style=&quot;font-size: 14px;&quot;&gt;автор&lt;/span&gt;" style="rounded=1;whiteSpace=wrap;html=1;" vertex="1" parent="WIyWlLk6GJQsqaUBKTNV-1">
          <mxGeometry x="1980" y="1760" width="90" height="30" as="geometry" />
        </mxCell>
        <mxCell id="bWu5x660F3Fy9pcuNLfG-2" value="&lt;span style=&quot;font-size: 14px;&quot;&gt;Закрыть карточку&lt;/span&gt;" style="rounded=1;whiteSpace=wrap;html=1;" vertex="1" parent="WIyWlLk6GJQsqaUBKTNV-1">
          <mxGeometry x="2130" y="1760" width="100" height="40" as="geometry" />
        </mxCell>
        <mxCell id="bWu5x660F3Fy9pcuNLfG-4" value="" style="curved=1;endArrow=classic;html=1;rounded=0;entryX=0.5;entryY=0;entryDx=0;entryDy=0;exitX=1;exitY=0.5;exitDx=0;exitDy=0;" edge="1" parent="WIyWlLk6GJQsqaUBKTNV-1" source="toA1lWc5eNlxfPyqDgul-2" target="OnWpnU2J5oESULf1WUZZ-0">
          <mxGeometry width="50" height="50" relative="1" as="geometry">
            <mxPoint x="2320" y="1010" as="sourcePoint" />
            <mxPoint x="2370" y="960" as="targetPoint" />
            <Array as="points">
              <mxPoint x="2400" y="960" />
            </Array>
          </mxGeometry>
        </mxCell>
        <mxCell id="bWu5x660F3Fy9pcuNLfG-5" value="&lt;font style=&quot;font-size: 14px;&quot;&gt;При нажатии на карточку&lt;/font&gt;" style="text;html=1;strokeColor=none;fillColor=none;align=center;verticalAlign=middle;whiteSpace=wrap;rounded=0;" vertex="1" parent="WIyWlLk6GJQsqaUBKTNV-1">
          <mxGeometry x="2230" y="1250" width="210" height="30" as="geometry" />
        </mxCell>
        <mxCell id="bWu5x660F3Fy9pcuNLfG-6" value="&lt;font style=&quot;font-size: 14px;&quot;&gt;Статус: 1&lt;/font&gt;" style="rounded=1;whiteSpace=wrap;html=1;" vertex="1" parent="WIyWlLk6GJQsqaUBKTNV-1">
          <mxGeometry x="2052.5" y="1680" width="235" height="60" as="geometry" />
        </mxCell>
        <mxCell id="rWEFqf3LOAaF9P_n075V-0" value="Можно изменить&lt;br&gt;&lt;b&gt;user_interface.change_card_title(self, card_id, new_title)&lt;/b&gt;" style="text;html=1;strokeColor=none;fillColor=none;align=left;verticalAlign=top;whiteSpace=wrap;rounded=0;fontSize=14;" vertex="1" parent="WIyWlLk6GJQsqaUBKTNV-1">
          <mxGeometry x="2425" y="1410" width="430" height="70" as="geometry" />
        </mxCell>
        <mxCell id="rWEFqf3LOAaF9P_n075V-1" value="Можно изменить&lt;br&gt;&lt;b&gt;user_interface.change_card_text(self, card_id, new_text)&lt;/b&gt;" style="text;html=1;strokeColor=none;fillColor=none;align=left;verticalAlign=top;whiteSpace=wrap;rounded=0;fontSize=14;" vertex="1" parent="WIyWlLk6GJQsqaUBKTNV-1">
          <mxGeometry x="2440" y="1550" width="430" height="70" as="geometry" />
        </mxCell>
        <mxCell id="rWEFqf3LOAaF9P_n075V-2" value="Можно изменить&lt;br&gt;&lt;b&gt;user_interface.change_card_status(self, card_id, new_status)&lt;/b&gt;" style="text;html=1;strokeColor=none;fillColor=none;align=left;verticalAlign=top;whiteSpace=wrap;rounded=0;fontSize=14;" vertex="1" parent="WIyWlLk6GJQsqaUBKTNV-1">
          <mxGeometry x="2440" y="1690" width="430" height="70" as="geometry" />
        </mxCell>
        <mxCell id="rWEFqf3LOAaF9P_n075V-3" value="" style="endArrow=none;html=1;rounded=0;exitX=1;exitY=0.5;exitDx=0;exitDy=0;entryX=0;entryY=0.5;entryDx=0;entryDy=0;" edge="1" parent="WIyWlLk6GJQsqaUBKTNV-1" source="OnWpnU2J5oESULf1WUZZ-1" target="rWEFqf3LOAaF9P_n075V-0">
          <mxGeometry width="50" height="50" relative="1" as="geometry">
            <mxPoint x="2400" y="1420" as="sourcePoint" />
            <mxPoint x="2450" y="1370" as="targetPoint" />
          </mxGeometry>
        </mxCell>
        <mxCell id="rWEFqf3LOAaF9P_n075V-4" value="" style="endArrow=none;html=1;rounded=0;exitX=1;exitY=0.5;exitDx=0;exitDy=0;entryX=-0.005;entryY=0.371;entryDx=0;entryDy=0;entryPerimeter=0;" edge="1" parent="WIyWlLk6GJQsqaUBKTNV-1" source="OnWpnU2J5oESULf1WUZZ-2" target="rWEFqf3LOAaF9P_n075V-1">
          <mxGeometry width="50" height="50" relative="1" as="geometry">
            <mxPoint x="2287.5" y="1587.5" as="sourcePoint" />
            <mxPoint x="2442.5" y="1592.5" as="targetPoint" />
          </mxGeometry>
        </mxCell>
        <mxCell id="rWEFqf3LOAaF9P_n075V-5" value="" style="endArrow=none;html=1;rounded=0;entryX=0;entryY=0.25;entryDx=0;entryDy=0;exitX=1;exitY=0.5;exitDx=0;exitDy=0;" edge="1" parent="WIyWlLk6GJQsqaUBKTNV-1" source="bWu5x660F3Fy9pcuNLfG-6" target="rWEFqf3LOAaF9P_n075V-2">
          <mxGeometry width="50" height="50" relative="1" as="geometry">
            <mxPoint x="2380" y="1790" as="sourcePoint" />
            <mxPoint x="2430" y="1740" as="targetPoint" />
          </mxGeometry>
        </mxCell>
        <mxCell id="yq9ZlA3eUuP073S3Vdev-0" value="Получаем информацию&lt;br&gt;&lt;b&gt;user_interface.get_full_card_info(self, card_id)&lt;/b&gt;" style="text;html=1;strokeColor=none;fillColor=none;align=left;verticalAlign=top;whiteSpace=wrap;rounded=0;fontSize=14;" vertex="1" parent="WIyWlLk6GJQsqaUBKTNV-1">
          <mxGeometry x="1895" y="1230" width="315" height="70" as="geometry" />
        </mxCell>
        <mxCell id="yq9ZlA3eUuP073S3Vdev-1" value="&lt;font style=&quot;font-size: 14px;&quot;&gt;От статуса карточки зависит её цвет&lt;br&gt;0 - по умолчанию (серый)&lt;br&gt;1 - Зелёный&lt;br&gt;2 - Жёлтый&lt;br&gt;3 - Красный&lt;/font&gt;" style="text;html=1;strokeColor=none;fillColor=none;align=left;verticalAlign=top;whiteSpace=wrap;rounded=0;" vertex="1" parent="WIyWlLk6GJQsqaUBKTNV-1">
          <mxGeometry x="2440" y="1735" width="310" height="90" as="geometry" />
        </mxCell>
      </root>
    </mxGraphModel>
  </diagram>
  <diagram id="Z06f55Jx232w9gSznlrB" name="Базы данных">
    <mxGraphModel dx="3340" dy="1923" grid="1" gridSize="10" guides="1" tooltips="1" connect="1" arrows="1" fold="1" page="1" pageScale="1" pageWidth="827" pageHeight="1169" math="0" shadow="0">
      <root>
        <mxCell id="0" />
        <mxCell id="1" parent="0" />
        <mxCell id="vsWkoR5Qh5MAWNViPZ4p-32" value="Пользователи" style="shape=table;startSize=30;container=1;collapsible=0;childLayout=tableLayout;strokeColor=default;fontSize=16;" parent="1" vertex="1">
          <mxGeometry x="60" y="220" width="340.0000000000002" height="150" as="geometry" />
        </mxCell>
        <mxCell id="vsWkoR5Qh5MAWNViPZ4p-33" value="" style="shape=tableRow;horizontal=0;startSize=0;swimlaneHead=0;swimlaneBody=0;strokeColor=inherit;top=0;left=0;bottom=0;right=0;collapsible=0;dropTarget=0;fillColor=none;points=[[0,0.5],[1,0.5]];portConstraint=eastwest;fontSize=16;" parent="vsWkoR5Qh5MAWNViPZ4p-32" vertex="1">
          <mxGeometry y="30" width="340.0000000000002" height="40" as="geometry" />
        </mxCell>
        <mxCell id="vsWkoR5Qh5MAWNViPZ4p-34" value="user_id" style="shape=partialRectangle;html=1;whiteSpace=wrap;connectable=0;strokeColor=inherit;overflow=hidden;fillColor=none;top=0;left=0;bottom=0;right=0;pointerEvents=1;fontSize=16;" parent="vsWkoR5Qh5MAWNViPZ4p-33" vertex="1">
          <mxGeometry width="100" height="40" as="geometry">
            <mxRectangle width="100" height="40" as="alternateBounds" />
          </mxGeometry>
        </mxCell>
        <mxCell id="vsWkoR5Qh5MAWNViPZ4p-35" value="login" style="shape=partialRectangle;html=1;whiteSpace=wrap;connectable=0;strokeColor=inherit;overflow=hidden;fillColor=none;top=0;left=0;bottom=0;right=0;pointerEvents=1;fontSize=16;" parent="vsWkoR5Qh5MAWNViPZ4p-33" vertex="1">
          <mxGeometry x="100" width="130" height="40" as="geometry">
            <mxRectangle width="130" height="40" as="alternateBounds" />
          </mxGeometry>
        </mxCell>
        <mxCell id="vsWkoR5Qh5MAWNViPZ4p-36" value="password" style="shape=partialRectangle;html=1;whiteSpace=wrap;connectable=0;strokeColor=inherit;overflow=hidden;fillColor=none;top=0;left=0;bottom=0;right=0;pointerEvents=1;fontSize=16;" parent="vsWkoR5Qh5MAWNViPZ4p-33" vertex="1">
          <mxGeometry x="230" width="110" height="40" as="geometry">
            <mxRectangle width="110" height="40" as="alternateBounds" />
          </mxGeometry>
        </mxCell>
        <mxCell id="vsWkoR5Qh5MAWNViPZ4p-37" value="" style="shape=tableRow;horizontal=0;startSize=0;swimlaneHead=0;swimlaneBody=0;strokeColor=inherit;top=0;left=0;bottom=0;right=0;collapsible=0;dropTarget=0;fillColor=none;points=[[0,0.5],[1,0.5]];portConstraint=eastwest;fontSize=16;" parent="vsWkoR5Qh5MAWNViPZ4p-32" vertex="1">
          <mxGeometry y="70" width="340.0000000000002" height="40" as="geometry" />
        </mxCell>
        <mxCell id="vsWkoR5Qh5MAWNViPZ4p-38" value="1" style="shape=partialRectangle;html=1;whiteSpace=wrap;connectable=0;strokeColor=inherit;overflow=hidden;fillColor=none;top=0;left=0;bottom=0;right=0;pointerEvents=1;fontSize=16;" parent="vsWkoR5Qh5MAWNViPZ4p-37" vertex="1">
          <mxGeometry width="100" height="40" as="geometry">
            <mxRectangle width="100" height="40" as="alternateBounds" />
          </mxGeometry>
        </mxCell>
        <mxCell id="vsWkoR5Qh5MAWNViPZ4p-39" value="oleg" style="shape=partialRectangle;html=1;whiteSpace=wrap;connectable=0;strokeColor=inherit;overflow=hidden;fillColor=none;top=0;left=0;bottom=0;right=0;pointerEvents=1;fontSize=16;" parent="vsWkoR5Qh5MAWNViPZ4p-37" vertex="1">
          <mxGeometry x="100" width="130" height="40" as="geometry">
            <mxRectangle width="130" height="40" as="alternateBounds" />
          </mxGeometry>
        </mxCell>
        <mxCell id="vsWkoR5Qh5MAWNViPZ4p-40" value="qwerty" style="shape=partialRectangle;html=1;whiteSpace=wrap;connectable=0;strokeColor=inherit;overflow=hidden;fillColor=none;top=0;left=0;bottom=0;right=0;pointerEvents=1;fontSize=16;" parent="vsWkoR5Qh5MAWNViPZ4p-37" vertex="1">
          <mxGeometry x="230" width="110" height="40" as="geometry">
            <mxRectangle width="110" height="40" as="alternateBounds" />
          </mxGeometry>
        </mxCell>
        <mxCell id="vsWkoR5Qh5MAWNViPZ4p-41" value="" style="shape=tableRow;horizontal=0;startSize=0;swimlaneHead=0;swimlaneBody=0;strokeColor=inherit;top=0;left=0;bottom=0;right=0;collapsible=0;dropTarget=0;fillColor=none;points=[[0,0.5],[1,0.5]];portConstraint=eastwest;fontSize=16;" parent="vsWkoR5Qh5MAWNViPZ4p-32" vertex="1">
          <mxGeometry y="110" width="340.0000000000002" height="40" as="geometry" />
        </mxCell>
        <mxCell id="vsWkoR5Qh5MAWNViPZ4p-42" value="2" style="shape=partialRectangle;html=1;whiteSpace=wrap;connectable=0;strokeColor=inherit;overflow=hidden;fillColor=none;top=0;left=0;bottom=0;right=0;pointerEvents=1;fontSize=16;" parent="vsWkoR5Qh5MAWNViPZ4p-41" vertex="1">
          <mxGeometry width="100" height="40" as="geometry">
            <mxRectangle width="100" height="40" as="alternateBounds" />
          </mxGeometry>
        </mxCell>
        <mxCell id="vsWkoR5Qh5MAWNViPZ4p-43" value="bob" style="shape=partialRectangle;html=1;whiteSpace=wrap;connectable=0;strokeColor=inherit;overflow=hidden;fillColor=none;top=0;left=0;bottom=0;right=0;pointerEvents=1;fontSize=16;" parent="vsWkoR5Qh5MAWNViPZ4p-41" vertex="1">
          <mxGeometry x="100" width="130" height="40" as="geometry">
            <mxRectangle width="130" height="40" as="alternateBounds" />
          </mxGeometry>
        </mxCell>
        <mxCell id="vsWkoR5Qh5MAWNViPZ4p-44" value="5erdfdf" style="shape=partialRectangle;html=1;whiteSpace=wrap;connectable=0;strokeColor=inherit;overflow=hidden;fillColor=none;top=0;left=0;bottom=0;right=0;pointerEvents=1;fontSize=16;" parent="vsWkoR5Qh5MAWNViPZ4p-41" vertex="1">
          <mxGeometry x="230" width="110" height="40" as="geometry">
            <mxRectangle width="110" height="40" as="alternateBounds" />
          </mxGeometry>
        </mxCell>
        <mxCell id="vsWkoR5Qh5MAWNViPZ4p-58" value="Доски" style="shape=table;startSize=30;container=1;collapsible=0;childLayout=tableLayout;strokeColor=default;fontSize=16;" parent="1" vertex="1">
          <mxGeometry x="500" y="200" width="340" height="150" as="geometry" />
        </mxCell>
        <mxCell id="vsWkoR5Qh5MAWNViPZ4p-59" value="" style="shape=tableRow;horizontal=0;startSize=0;swimlaneHead=0;swimlaneBody=0;strokeColor=inherit;top=0;left=0;bottom=0;right=0;collapsible=0;dropTarget=0;fillColor=none;points=[[0,0.5],[1,0.5]];portConstraint=eastwest;fontSize=16;" parent="vsWkoR5Qh5MAWNViPZ4p-58" vertex="1">
          <mxGeometry y="30" width="340" height="40" as="geometry" />
        </mxCell>
        <mxCell id="vsWkoR5Qh5MAWNViPZ4p-60" value="desk_id" style="shape=partialRectangle;html=1;whiteSpace=wrap;connectable=0;strokeColor=inherit;overflow=hidden;fillColor=none;top=0;left=0;bottom=0;right=0;pointerEvents=1;fontSize=16;" parent="vsWkoR5Qh5MAWNViPZ4p-59" vertex="1">
          <mxGeometry width="100" height="40" as="geometry">
            <mxRectangle width="100" height="40" as="alternateBounds" />
          </mxGeometry>
        </mxCell>
        <mxCell id="vsWkoR5Qh5MAWNViPZ4p-61" value="desk_name" style="shape=partialRectangle;html=1;whiteSpace=wrap;connectable=0;strokeColor=inherit;overflow=hidden;fillColor=none;top=0;left=0;bottom=0;right=0;pointerEvents=1;fontSize=16;" parent="vsWkoR5Qh5MAWNViPZ4p-59" vertex="1">
          <mxGeometry x="100" width="130" height="40" as="geometry">
            <mxRectangle width="130" height="40" as="alternateBounds" />
          </mxGeometry>
        </mxCell>
        <mxCell id="vsWkoR5Qh5MAWNViPZ4p-62" value="public" style="shape=partialRectangle;html=1;whiteSpace=wrap;connectable=0;strokeColor=inherit;overflow=hidden;fillColor=none;top=0;left=0;bottom=0;right=0;pointerEvents=1;fontSize=16;" parent="vsWkoR5Qh5MAWNViPZ4p-59" vertex="1">
          <mxGeometry x="230" width="110" height="40" as="geometry">
            <mxRectangle width="110" height="40" as="alternateBounds" />
          </mxGeometry>
        </mxCell>
        <mxCell id="vsWkoR5Qh5MAWNViPZ4p-63" value="" style="shape=tableRow;horizontal=0;startSize=0;swimlaneHead=0;swimlaneBody=0;strokeColor=inherit;top=0;left=0;bottom=0;right=0;collapsible=0;dropTarget=0;fillColor=none;points=[[0,0.5],[1,0.5]];portConstraint=eastwest;fontSize=16;" parent="vsWkoR5Qh5MAWNViPZ4p-58" vertex="1">
          <mxGeometry y="70" width="340" height="40" as="geometry" />
        </mxCell>
        <mxCell id="vsWkoR5Qh5MAWNViPZ4p-64" value="1" style="shape=partialRectangle;html=1;whiteSpace=wrap;connectable=0;strokeColor=inherit;overflow=hidden;fillColor=none;top=0;left=0;bottom=0;right=0;pointerEvents=1;fontSize=16;" parent="vsWkoR5Qh5MAWNViPZ4p-63" vertex="1">
          <mxGeometry width="100" height="40" as="geometry">
            <mxRectangle width="100" height="40" as="alternateBounds" />
          </mxGeometry>
        </mxCell>
        <mxCell id="vsWkoR5Qh5MAWNViPZ4p-65" value="desk1" style="shape=partialRectangle;html=1;whiteSpace=wrap;connectable=0;strokeColor=inherit;overflow=hidden;fillColor=none;top=0;left=0;bottom=0;right=0;pointerEvents=1;fontSize=16;" parent="vsWkoR5Qh5MAWNViPZ4p-63" vertex="1">
          <mxGeometry x="100" width="130" height="40" as="geometry">
            <mxRectangle width="130" height="40" as="alternateBounds" />
          </mxGeometry>
        </mxCell>
        <mxCell id="vsWkoR5Qh5MAWNViPZ4p-66" value="1" style="shape=partialRectangle;html=1;whiteSpace=wrap;connectable=0;strokeColor=inherit;overflow=hidden;fillColor=none;top=0;left=0;bottom=0;right=0;pointerEvents=1;fontSize=16;" parent="vsWkoR5Qh5MAWNViPZ4p-63" vertex="1">
          <mxGeometry x="230" width="110" height="40" as="geometry">
            <mxRectangle width="110" height="40" as="alternateBounds" />
          </mxGeometry>
        </mxCell>
        <mxCell id="vsWkoR5Qh5MAWNViPZ4p-67" value="" style="shape=tableRow;horizontal=0;startSize=0;swimlaneHead=0;swimlaneBody=0;strokeColor=inherit;top=0;left=0;bottom=0;right=0;collapsible=0;dropTarget=0;fillColor=none;points=[[0,0.5],[1,0.5]];portConstraint=eastwest;fontSize=16;" parent="vsWkoR5Qh5MAWNViPZ4p-58" vertex="1">
          <mxGeometry y="110" width="340" height="40" as="geometry" />
        </mxCell>
        <mxCell id="vsWkoR5Qh5MAWNViPZ4p-68" value="2" style="shape=partialRectangle;html=1;whiteSpace=wrap;connectable=0;strokeColor=inherit;overflow=hidden;fillColor=none;top=0;left=0;bottom=0;right=0;pointerEvents=1;fontSize=16;" parent="vsWkoR5Qh5MAWNViPZ4p-67" vertex="1">
          <mxGeometry width="100" height="40" as="geometry">
            <mxRectangle width="100" height="40" as="alternateBounds" />
          </mxGeometry>
        </mxCell>
        <mxCell id="vsWkoR5Qh5MAWNViPZ4p-69" value="desk_2" style="shape=partialRectangle;html=1;whiteSpace=wrap;connectable=0;strokeColor=inherit;overflow=hidden;fillColor=none;top=0;left=0;bottom=0;right=0;pointerEvents=1;fontSize=16;" parent="vsWkoR5Qh5MAWNViPZ4p-67" vertex="1">
          <mxGeometry x="100" width="130" height="40" as="geometry">
            <mxRectangle width="130" height="40" as="alternateBounds" />
          </mxGeometry>
        </mxCell>
        <mxCell id="vsWkoR5Qh5MAWNViPZ4p-70" value="0" style="shape=partialRectangle;html=1;whiteSpace=wrap;connectable=0;strokeColor=inherit;overflow=hidden;fillColor=none;top=0;left=0;bottom=0;right=0;pointerEvents=1;fontSize=16;" parent="vsWkoR5Qh5MAWNViPZ4p-67" vertex="1">
          <mxGeometry x="230" width="110" height="40" as="geometry">
            <mxRectangle width="110" height="40" as="alternateBounds" />
          </mxGeometry>
        </mxCell>
        <mxCell id="vsWkoR5Qh5MAWNViPZ4p-71" value="Пользователь, который создал доску (login)" style="text;html=1;strokeColor=none;fillColor=none;align=center;verticalAlign=middle;whiteSpace=wrap;rounded=0;fontSize=14;" parent="1" vertex="1">
          <mxGeometry x="870" y="80" width="160" height="80" as="geometry" />
        </mxCell>
        <mxCell id="vsWkoR5Qh5MAWNViPZ4p-72" value="Частная/общественная" style="text;html=1;strokeColor=none;fillColor=none;align=center;verticalAlign=middle;whiteSpace=wrap;rounded=0;fontSize=14;" parent="1" vertex="1">
          <mxGeometry x="660" y="80" width="160" height="80" as="geometry" />
        </mxCell>
        <mxCell id="vsWkoR5Qh5MAWNViPZ4p-74" value="" style="endArrow=classic;html=1;rounded=0;entryX=0.806;entryY=-0.054;entryDx=0;entryDy=0;entryPerimeter=0;" parent="1" source="vsWkoR5Qh5MAWNViPZ4p-72" target="vsWkoR5Qh5MAWNViPZ4p-59" edge="1">
          <mxGeometry width="50" height="50" relative="1" as="geometry">
            <mxPoint x="820" y="140" as="sourcePoint" />
            <mxPoint x="870" y="90" as="targetPoint" />
          </mxGeometry>
        </mxCell>
        <mxCell id="VT_9sxWcttqTR_vI96W3-30" value="Доски" style="shape=table;startSize=30;container=1;collapsible=0;childLayout=tableLayout;strokeColor=default;fontSize=16;" parent="1" vertex="1">
          <mxGeometry x="841" y="200" width="340" height="150" as="geometry" />
        </mxCell>
        <mxCell id="VT_9sxWcttqTR_vI96W3-31" value="" style="shape=tableRow;horizontal=0;startSize=0;swimlaneHead=0;swimlaneBody=0;strokeColor=inherit;top=0;left=0;bottom=0;right=0;collapsible=0;dropTarget=0;fillColor=none;points=[[0,0.5],[1,0.5]];portConstraint=eastwest;fontSize=16;" parent="VT_9sxWcttqTR_vI96W3-30" vertex="1">
          <mxGeometry y="30" width="340" height="40" as="geometry" />
        </mxCell>
        <mxCell id="VT_9sxWcttqTR_vI96W3-32" value="owner_login" style="shape=partialRectangle;html=1;whiteSpace=wrap;connectable=0;strokeColor=inherit;overflow=hidden;fillColor=none;top=0;left=0;bottom=0;right=0;pointerEvents=1;fontSize=16;" parent="VT_9sxWcttqTR_vI96W3-31" vertex="1">
          <mxGeometry width="100" height="40" as="geometry">
            <mxRectangle width="100" height="40" as="alternateBounds" />
          </mxGeometry>
        </mxCell>
        <mxCell id="VT_9sxWcttqTR_vI96W3-33" value="" style="shape=partialRectangle;html=1;whiteSpace=wrap;connectable=0;strokeColor=inherit;overflow=hidden;fillColor=none;top=0;left=0;bottom=0;right=0;pointerEvents=1;fontSize=16;" parent="VT_9sxWcttqTR_vI96W3-31" vertex="1">
          <mxGeometry x="100" width="130" height="40" as="geometry">
            <mxRectangle width="130" height="40" as="alternateBounds" />
          </mxGeometry>
        </mxCell>
        <mxCell id="VT_9sxWcttqTR_vI96W3-34" value="" style="shape=partialRectangle;html=1;whiteSpace=wrap;connectable=0;strokeColor=inherit;overflow=hidden;fillColor=none;top=0;left=0;bottom=0;right=0;pointerEvents=1;fontSize=16;" parent="VT_9sxWcttqTR_vI96W3-31" vertex="1">
          <mxGeometry x="230" width="110" height="40" as="geometry">
            <mxRectangle width="110" height="40" as="alternateBounds" />
          </mxGeometry>
        </mxCell>
        <mxCell id="VT_9sxWcttqTR_vI96W3-35" value="" style="shape=tableRow;horizontal=0;startSize=0;swimlaneHead=0;swimlaneBody=0;strokeColor=inherit;top=0;left=0;bottom=0;right=0;collapsible=0;dropTarget=0;fillColor=none;points=[[0,0.5],[1,0.5]];portConstraint=eastwest;fontSize=16;" parent="VT_9sxWcttqTR_vI96W3-30" vertex="1">
          <mxGeometry y="70" width="340" height="40" as="geometry" />
        </mxCell>
        <mxCell id="VT_9sxWcttqTR_vI96W3-36" value="bob" style="shape=partialRectangle;html=1;whiteSpace=wrap;connectable=0;strokeColor=inherit;overflow=hidden;fillColor=none;top=0;left=0;bottom=0;right=0;pointerEvents=1;fontSize=16;" parent="VT_9sxWcttqTR_vI96W3-35" vertex="1">
          <mxGeometry width="100" height="40" as="geometry">
            <mxRectangle width="100" height="40" as="alternateBounds" />
          </mxGeometry>
        </mxCell>
        <mxCell id="VT_9sxWcttqTR_vI96W3-37" value="" style="shape=partialRectangle;html=1;whiteSpace=wrap;connectable=0;strokeColor=inherit;overflow=hidden;fillColor=none;top=0;left=0;bottom=0;right=0;pointerEvents=1;fontSize=16;" parent="VT_9sxWcttqTR_vI96W3-35" vertex="1">
          <mxGeometry x="100" width="130" height="40" as="geometry">
            <mxRectangle width="130" height="40" as="alternateBounds" />
          </mxGeometry>
        </mxCell>
        <mxCell id="VT_9sxWcttqTR_vI96W3-38" value="" style="shape=partialRectangle;html=1;whiteSpace=wrap;connectable=0;strokeColor=inherit;overflow=hidden;fillColor=none;top=0;left=0;bottom=0;right=0;pointerEvents=1;fontSize=16;" parent="VT_9sxWcttqTR_vI96W3-35" vertex="1">
          <mxGeometry x="230" width="110" height="40" as="geometry">
            <mxRectangle width="110" height="40" as="alternateBounds" />
          </mxGeometry>
        </mxCell>
        <mxCell id="VT_9sxWcttqTR_vI96W3-39" value="" style="shape=tableRow;horizontal=0;startSize=0;swimlaneHead=0;swimlaneBody=0;strokeColor=inherit;top=0;left=0;bottom=0;right=0;collapsible=0;dropTarget=0;fillColor=none;points=[[0,0.5],[1,0.5]];portConstraint=eastwest;fontSize=16;" parent="VT_9sxWcttqTR_vI96W3-30" vertex="1">
          <mxGeometry y="110" width="340" height="40" as="geometry" />
        </mxCell>
        <mxCell id="VT_9sxWcttqTR_vI96W3-40" value="oleg" style="shape=partialRectangle;html=1;whiteSpace=wrap;connectable=0;strokeColor=inherit;overflow=hidden;fillColor=none;top=0;left=0;bottom=0;right=0;pointerEvents=1;fontSize=16;" parent="VT_9sxWcttqTR_vI96W3-39" vertex="1">
          <mxGeometry width="100" height="40" as="geometry">
            <mxRectangle width="100" height="40" as="alternateBounds" />
          </mxGeometry>
        </mxCell>
        <mxCell id="VT_9sxWcttqTR_vI96W3-41" value="" style="shape=partialRectangle;html=1;whiteSpace=wrap;connectable=0;strokeColor=inherit;overflow=hidden;fillColor=none;top=0;left=0;bottom=0;right=0;pointerEvents=1;fontSize=16;" parent="VT_9sxWcttqTR_vI96W3-39" vertex="1">
          <mxGeometry x="100" width="130" height="40" as="geometry">
            <mxRectangle width="130" height="40" as="alternateBounds" />
          </mxGeometry>
        </mxCell>
        <mxCell id="VT_9sxWcttqTR_vI96W3-42" value="" style="shape=partialRectangle;html=1;whiteSpace=wrap;connectable=0;strokeColor=inherit;overflow=hidden;fillColor=none;top=0;left=0;bottom=0;right=0;pointerEvents=1;fontSize=16;" parent="VT_9sxWcttqTR_vI96W3-39" vertex="1">
          <mxGeometry x="230" width="110" height="40" as="geometry">
            <mxRectangle width="110" height="40" as="alternateBounds" />
          </mxGeometry>
        </mxCell>
        <mxCell id="vsWkoR5Qh5MAWNViPZ4p-73" value="" style="endArrow=classic;html=1;rounded=0;exitX=0.5;exitY=1;exitDx=0;exitDy=0;entryX=0.143;entryY=-0.054;entryDx=0;entryDy=0;entryPerimeter=0;" parent="1" source="vsWkoR5Qh5MAWNViPZ4p-71" target="VT_9sxWcttqTR_vI96W3-31" edge="1">
          <mxGeometry width="50" height="50" relative="1" as="geometry">
            <mxPoint x="580" y="160" as="sourcePoint" />
            <mxPoint x="630" y="110" as="targetPoint" />
          </mxGeometry>
        </mxCell>
        <mxCell id="VT_9sxWcttqTR_vI96W3-43" value="права на редактирования " style="shape=table;startSize=30;container=1;collapsible=0;childLayout=tableLayout;strokeColor=default;fontSize=16;" parent="1" vertex="1">
          <mxGeometry x="79" y="590" width="340.0000000000002" height="150" as="geometry" />
        </mxCell>
        <mxCell id="VT_9sxWcttqTR_vI96W3-44" value="" style="shape=tableRow;horizontal=0;startSize=0;swimlaneHead=0;swimlaneBody=0;strokeColor=inherit;top=0;left=0;bottom=0;right=0;collapsible=0;dropTarget=0;fillColor=none;points=[[0,0.5],[1,0.5]];portConstraint=eastwest;fontSize=16;" parent="VT_9sxWcttqTR_vI96W3-43" vertex="1">
          <mxGeometry y="30" width="340.0000000000002" height="40" as="geometry" />
        </mxCell>
        <mxCell id="VT_9sxWcttqTR_vI96W3-45" value="id" style="shape=partialRectangle;html=1;whiteSpace=wrap;connectable=0;strokeColor=inherit;overflow=hidden;fillColor=none;top=0;left=0;bottom=0;right=0;pointerEvents=1;fontSize=16;" parent="VT_9sxWcttqTR_vI96W3-44" vertex="1">
          <mxGeometry width="100" height="40" as="geometry">
            <mxRectangle width="100" height="40" as="alternateBounds" />
          </mxGeometry>
        </mxCell>
        <mxCell id="VT_9sxWcttqTR_vI96W3-46" value="desk_id" style="shape=partialRectangle;html=1;whiteSpace=wrap;connectable=0;strokeColor=inherit;overflow=hidden;fillColor=none;top=0;left=0;bottom=0;right=0;pointerEvents=1;fontSize=16;" parent="VT_9sxWcttqTR_vI96W3-44" vertex="1">
          <mxGeometry x="100" width="130" height="40" as="geometry">
            <mxRectangle width="130" height="40" as="alternateBounds" />
          </mxGeometry>
        </mxCell>
        <mxCell id="VT_9sxWcttqTR_vI96W3-47" value="user_id" style="shape=partialRectangle;html=1;whiteSpace=wrap;connectable=0;strokeColor=inherit;overflow=hidden;fillColor=none;top=0;left=0;bottom=0;right=0;pointerEvents=1;fontSize=16;" parent="VT_9sxWcttqTR_vI96W3-44" vertex="1">
          <mxGeometry x="230" width="110" height="40" as="geometry">
            <mxRectangle width="110" height="40" as="alternateBounds" />
          </mxGeometry>
        </mxCell>
        <mxCell id="VT_9sxWcttqTR_vI96W3-48" value="" style="shape=tableRow;horizontal=0;startSize=0;swimlaneHead=0;swimlaneBody=0;strokeColor=inherit;top=0;left=0;bottom=0;right=0;collapsible=0;dropTarget=0;fillColor=none;points=[[0,0.5],[1,0.5]];portConstraint=eastwest;fontSize=16;" parent="VT_9sxWcttqTR_vI96W3-43" vertex="1">
          <mxGeometry y="70" width="340.0000000000002" height="40" as="geometry" />
        </mxCell>
        <mxCell id="VT_9sxWcttqTR_vI96W3-49" value="1" style="shape=partialRectangle;html=1;whiteSpace=wrap;connectable=0;strokeColor=inherit;overflow=hidden;fillColor=none;top=0;left=0;bottom=0;right=0;pointerEvents=1;fontSize=16;" parent="VT_9sxWcttqTR_vI96W3-48" vertex="1">
          <mxGeometry width="100" height="40" as="geometry">
            <mxRectangle width="100" height="40" as="alternateBounds" />
          </mxGeometry>
        </mxCell>
        <mxCell id="VT_9sxWcttqTR_vI96W3-50" value="4" style="shape=partialRectangle;html=1;whiteSpace=wrap;connectable=0;strokeColor=inherit;overflow=hidden;fillColor=none;top=0;left=0;bottom=0;right=0;pointerEvents=1;fontSize=16;" parent="VT_9sxWcttqTR_vI96W3-48" vertex="1">
          <mxGeometry x="100" width="130" height="40" as="geometry">
            <mxRectangle width="130" height="40" as="alternateBounds" />
          </mxGeometry>
        </mxCell>
        <mxCell id="VT_9sxWcttqTR_vI96W3-51" value="1" style="shape=partialRectangle;html=1;whiteSpace=wrap;connectable=0;strokeColor=inherit;overflow=hidden;fillColor=none;top=0;left=0;bottom=0;right=0;pointerEvents=1;fontSize=16;" parent="VT_9sxWcttqTR_vI96W3-48" vertex="1">
          <mxGeometry x="230" width="110" height="40" as="geometry">
            <mxRectangle width="110" height="40" as="alternateBounds" />
          </mxGeometry>
        </mxCell>
        <mxCell id="VT_9sxWcttqTR_vI96W3-52" value="" style="shape=tableRow;horizontal=0;startSize=0;swimlaneHead=0;swimlaneBody=0;strokeColor=inherit;top=0;left=0;bottom=0;right=0;collapsible=0;dropTarget=0;fillColor=none;points=[[0,0.5],[1,0.5]];portConstraint=eastwest;fontSize=16;" parent="VT_9sxWcttqTR_vI96W3-43" vertex="1">
          <mxGeometry y="110" width="340.0000000000002" height="40" as="geometry" />
        </mxCell>
        <mxCell id="VT_9sxWcttqTR_vI96W3-53" value="2" style="shape=partialRectangle;html=1;whiteSpace=wrap;connectable=0;strokeColor=inherit;overflow=hidden;fillColor=none;top=0;left=0;bottom=0;right=0;pointerEvents=1;fontSize=16;" parent="VT_9sxWcttqTR_vI96W3-52" vertex="1">
          <mxGeometry width="100" height="40" as="geometry">
            <mxRectangle width="100" height="40" as="alternateBounds" />
          </mxGeometry>
        </mxCell>
        <mxCell id="VT_9sxWcttqTR_vI96W3-54" value="2" style="shape=partialRectangle;html=1;whiteSpace=wrap;connectable=0;strokeColor=inherit;overflow=hidden;fillColor=none;top=0;left=0;bottom=0;right=0;pointerEvents=1;fontSize=16;" parent="VT_9sxWcttqTR_vI96W3-52" vertex="1">
          <mxGeometry x="100" width="130" height="40" as="geometry">
            <mxRectangle width="130" height="40" as="alternateBounds" />
          </mxGeometry>
        </mxCell>
        <mxCell id="VT_9sxWcttqTR_vI96W3-55" value="1" style="shape=partialRectangle;html=1;whiteSpace=wrap;connectable=0;strokeColor=inherit;overflow=hidden;fillColor=none;top=0;left=0;bottom=0;right=0;pointerEvents=1;fontSize=16;" parent="VT_9sxWcttqTR_vI96W3-52" vertex="1">
          <mxGeometry x="230" width="110" height="40" as="geometry">
            <mxRectangle width="110" height="40" as="alternateBounds" />
          </mxGeometry>
        </mxCell>
        <mxCell id="VT_9sxWcttqTR_vI96W3-56" value="Столбцы в досках" style="shape=table;startSize=30;container=1;collapsible=0;childLayout=tableLayout;strokeColor=default;fontSize=16;" parent="1" vertex="1">
          <mxGeometry x="980" y="520" width="410.0000000000002" height="170.00000000000023" as="geometry" />
        </mxCell>
        <mxCell id="VT_9sxWcttqTR_vI96W3-57" value="" style="shape=tableRow;horizontal=0;startSize=0;swimlaneHead=0;swimlaneBody=0;strokeColor=inherit;top=0;left=0;bottom=0;right=0;collapsible=0;dropTarget=0;fillColor=none;points=[[0,0.5],[1,0.5]];portConstraint=eastwest;fontSize=16;" parent="VT_9sxWcttqTR_vI96W3-56" vertex="1">
          <mxGeometry y="30" width="410.0000000000002" height="60" as="geometry" />
        </mxCell>
        <mxCell id="VT_9sxWcttqTR_vI96W3-58" value="column_id" style="shape=partialRectangle;html=1;whiteSpace=wrap;connectable=0;strokeColor=inherit;overflow=hidden;fillColor=none;top=0;left=0;bottom=0;right=0;pointerEvents=1;fontSize=16;" parent="VT_9sxWcttqTR_vI96W3-57" vertex="1">
          <mxGeometry width="100" height="60" as="geometry">
            <mxRectangle width="100" height="60" as="alternateBounds" />
          </mxGeometry>
        </mxCell>
        <mxCell id="VT_9sxWcttqTR_vI96W3-59" value="desk_id" style="shape=partialRectangle;html=1;whiteSpace=wrap;connectable=0;strokeColor=inherit;overflow=hidden;fillColor=none;top=0;left=0;bottom=0;right=0;pointerEvents=1;fontSize=16;" parent="VT_9sxWcttqTR_vI96W3-57" vertex="1">
          <mxGeometry x="100" width="130" height="60" as="geometry">
            <mxRectangle width="130" height="60" as="alternateBounds" />
          </mxGeometry>
        </mxCell>
        <mxCell id="VT_9sxWcttqTR_vI96W3-60" value="column_name" style="shape=partialRectangle;html=1;whiteSpace=wrap;connectable=0;strokeColor=inherit;overflow=hidden;fillColor=none;top=0;left=0;bottom=0;right=0;pointerEvents=1;fontSize=16;" parent="VT_9sxWcttqTR_vI96W3-57" vertex="1">
          <mxGeometry x="230" width="180" height="60" as="geometry">
            <mxRectangle width="180" height="60" as="alternateBounds" />
          </mxGeometry>
        </mxCell>
        <mxCell id="VT_9sxWcttqTR_vI96W3-61" value="" style="shape=tableRow;horizontal=0;startSize=0;swimlaneHead=0;swimlaneBody=0;strokeColor=inherit;top=0;left=0;bottom=0;right=0;collapsible=0;dropTarget=0;fillColor=none;points=[[0,0.5],[1,0.5]];portConstraint=eastwest;fontSize=16;" parent="VT_9sxWcttqTR_vI96W3-56" vertex="1">
          <mxGeometry y="90" width="410.0000000000002" height="40" as="geometry" />
        </mxCell>
        <mxCell id="VT_9sxWcttqTR_vI96W3-62" value="1" style="shape=partialRectangle;html=1;whiteSpace=wrap;connectable=0;strokeColor=inherit;overflow=hidden;fillColor=none;top=0;left=0;bottom=0;right=0;pointerEvents=1;fontSize=16;" parent="VT_9sxWcttqTR_vI96W3-61" vertex="1">
          <mxGeometry width="100" height="40" as="geometry">
            <mxRectangle width="100" height="40" as="alternateBounds" />
          </mxGeometry>
        </mxCell>
        <mxCell id="VT_9sxWcttqTR_vI96W3-63" value="4" style="shape=partialRectangle;html=1;whiteSpace=wrap;connectable=0;strokeColor=inherit;overflow=hidden;fillColor=none;top=0;left=0;bottom=0;right=0;pointerEvents=1;fontSize=16;" parent="VT_9sxWcttqTR_vI96W3-61" vertex="1">
          <mxGeometry x="100" width="130" height="40" as="geometry">
            <mxRectangle width="130" height="40" as="alternateBounds" />
          </mxGeometry>
        </mxCell>
        <mxCell id="VT_9sxWcttqTR_vI96W3-64" value="column_1" style="shape=partialRectangle;html=1;whiteSpace=wrap;connectable=0;strokeColor=inherit;overflow=hidden;fillColor=none;top=0;left=0;bottom=0;right=0;pointerEvents=1;fontSize=16;" parent="VT_9sxWcttqTR_vI96W3-61" vertex="1">
          <mxGeometry x="230" width="180" height="40" as="geometry">
            <mxRectangle width="180" height="40" as="alternateBounds" />
          </mxGeometry>
        </mxCell>
        <mxCell id="VT_9sxWcttqTR_vI96W3-65" value="" style="shape=tableRow;horizontal=0;startSize=0;swimlaneHead=0;swimlaneBody=0;strokeColor=inherit;top=0;left=0;bottom=0;right=0;collapsible=0;dropTarget=0;fillColor=none;points=[[0,0.5],[1,0.5]];portConstraint=eastwest;fontSize=16;" parent="VT_9sxWcttqTR_vI96W3-56" vertex="1">
          <mxGeometry y="130" width="410.0000000000002" height="40" as="geometry" />
        </mxCell>
        <mxCell id="VT_9sxWcttqTR_vI96W3-66" value="2" style="shape=partialRectangle;html=1;whiteSpace=wrap;connectable=0;strokeColor=inherit;overflow=hidden;fillColor=none;top=0;left=0;bottom=0;right=0;pointerEvents=1;fontSize=16;" parent="VT_9sxWcttqTR_vI96W3-65" vertex="1">
          <mxGeometry width="100" height="40" as="geometry">
            <mxRectangle width="100" height="40" as="alternateBounds" />
          </mxGeometry>
        </mxCell>
        <mxCell id="VT_9sxWcttqTR_vI96W3-67" value="2" style="shape=partialRectangle;html=1;whiteSpace=wrap;connectable=0;strokeColor=inherit;overflow=hidden;fillColor=none;top=0;left=0;bottom=0;right=0;pointerEvents=1;fontSize=16;" parent="VT_9sxWcttqTR_vI96W3-65" vertex="1">
          <mxGeometry x="100" width="130" height="40" as="geometry">
            <mxRectangle width="130" height="40" as="alternateBounds" />
          </mxGeometry>
        </mxCell>
        <mxCell id="VT_9sxWcttqTR_vI96W3-68" value="column_5" style="shape=partialRectangle;html=1;whiteSpace=wrap;connectable=0;strokeColor=inherit;overflow=hidden;fillColor=none;top=0;left=0;bottom=0;right=0;pointerEvents=1;fontSize=16;" parent="VT_9sxWcttqTR_vI96W3-65" vertex="1">
          <mxGeometry x="230" width="180" height="40" as="geometry">
            <mxRectangle width="180" height="40" as="alternateBounds" />
          </mxGeometry>
        </mxCell>
        <mxCell id="VT_9sxWcttqTR_vI96W3-71" value="&lt;font style=&quot;font-size: 14px;&quot;&gt;Пользователь с id = 1 может редактировать доску с id = 4&lt;/font&gt;" style="text;html=1;strokeColor=none;fillColor=none;align=center;verticalAlign=middle;whiteSpace=wrap;rounded=0;" parent="1" vertex="1">
          <mxGeometry x="480" y="630" width="280" height="100" as="geometry" />
        </mxCell>
        <mxCell id="VT_9sxWcttqTR_vI96W3-72" value="" style="endArrow=classic;html=1;rounded=0;entryX=1;entryY=0.5;entryDx=0;entryDy=0;exitX=0;exitY=0.5;exitDx=0;exitDy=0;" parent="1" source="VT_9sxWcttqTR_vI96W3-71" target="VT_9sxWcttqTR_vI96W3-48" edge="1">
          <mxGeometry width="50" height="50" relative="1" as="geometry">
            <mxPoint x="460" y="690" as="sourcePoint" />
            <mxPoint x="510" y="640" as="targetPoint" />
          </mxGeometry>
        </mxCell>
        <mxCell id="VT_9sxWcttqTR_vI96W3-73" value="id доски, которой принадлежит столбец" style="text;html=1;strokeColor=none;fillColor=none;align=center;verticalAlign=middle;whiteSpace=wrap;rounded=0;fontSize=14;" parent="1" vertex="1">
          <mxGeometry x="1050" y="410" width="160" height="80" as="geometry" />
        </mxCell>
        <mxCell id="VT_9sxWcttqTR_vI96W3-76" value="" style="endArrow=classic;html=1;rounded=0;entryX=0.402;entryY=-0.036;entryDx=0;entryDy=0;entryPerimeter=0;exitX=0.5;exitY=1;exitDx=0;exitDy=0;" parent="1" source="VT_9sxWcttqTR_vI96W3-73" target="VT_9sxWcttqTR_vI96W3-57" edge="1">
          <mxGeometry width="50" height="50" relative="1" as="geometry">
            <mxPoint x="1260" y="450" as="sourcePoint" />
            <mxPoint x="1310" y="400" as="targetPoint" />
          </mxGeometry>
        </mxCell>
        <mxCell id="VT_9sxWcttqTR_vI96W3-78" value="Карточки" style="shape=table;startSize=30;container=1;collapsible=0;childLayout=tableLayout;strokeColor=default;fontSize=16;" parent="1" vertex="1">
          <mxGeometry x="70" y="970" width="410.0000000000002" height="170.00000000000023" as="geometry" />
        </mxCell>
        <mxCell id="VT_9sxWcttqTR_vI96W3-79" value="" style="shape=tableRow;horizontal=0;startSize=0;swimlaneHead=0;swimlaneBody=0;strokeColor=inherit;top=0;left=0;bottom=0;right=0;collapsible=0;dropTarget=0;fillColor=none;points=[[0,0.5],[1,0.5]];portConstraint=eastwest;fontSize=16;" parent="VT_9sxWcttqTR_vI96W3-78" vertex="1">
          <mxGeometry y="30" width="410.0000000000002" height="60" as="geometry" />
        </mxCell>
        <mxCell id="VT_9sxWcttqTR_vI96W3-80" value="card_id" style="shape=partialRectangle;html=1;whiteSpace=wrap;connectable=0;strokeColor=inherit;overflow=hidden;fillColor=none;top=0;left=0;bottom=0;right=0;pointerEvents=1;fontSize=16;" parent="VT_9sxWcttqTR_vI96W3-79" vertex="1">
          <mxGeometry width="100" height="60" as="geometry">
            <mxRectangle width="100" height="60" as="alternateBounds" />
          </mxGeometry>
        </mxCell>
        <mxCell id="VT_9sxWcttqTR_vI96W3-81" value="card_title" style="shape=partialRectangle;html=1;whiteSpace=wrap;connectable=0;strokeColor=inherit;overflow=hidden;fillColor=none;top=0;left=0;bottom=0;right=0;pointerEvents=1;fontSize=16;" parent="VT_9sxWcttqTR_vI96W3-79" vertex="1">
          <mxGeometry x="100" width="130" height="60" as="geometry">
            <mxRectangle width="130" height="60" as="alternateBounds" />
          </mxGeometry>
        </mxCell>
        <mxCell id="VT_9sxWcttqTR_vI96W3-82" value="card_text" style="shape=partialRectangle;html=1;whiteSpace=wrap;connectable=0;strokeColor=inherit;overflow=hidden;fillColor=none;top=0;left=0;bottom=0;right=0;pointerEvents=1;fontSize=16;" parent="VT_9sxWcttqTR_vI96W3-79" vertex="1">
          <mxGeometry x="230" width="180" height="60" as="geometry">
            <mxRectangle width="180" height="60" as="alternateBounds" />
          </mxGeometry>
        </mxCell>
        <mxCell id="VT_9sxWcttqTR_vI96W3-83" value="" style="shape=tableRow;horizontal=0;startSize=0;swimlaneHead=0;swimlaneBody=0;strokeColor=inherit;top=0;left=0;bottom=0;right=0;collapsible=0;dropTarget=0;fillColor=none;points=[[0,0.5],[1,0.5]];portConstraint=eastwest;fontSize=16;" parent="VT_9sxWcttqTR_vI96W3-78" vertex="1">
          <mxGeometry y="90" width="410.0000000000002" height="40" as="geometry" />
        </mxCell>
        <mxCell id="VT_9sxWcttqTR_vI96W3-84" value="1" style="shape=partialRectangle;html=1;whiteSpace=wrap;connectable=0;strokeColor=inherit;overflow=hidden;fillColor=none;top=0;left=0;bottom=0;right=0;pointerEvents=1;fontSize=16;" parent="VT_9sxWcttqTR_vI96W3-83" vertex="1">
          <mxGeometry width="100" height="40" as="geometry">
            <mxRectangle width="100" height="40" as="alternateBounds" />
          </mxGeometry>
        </mxCell>
        <mxCell id="VT_9sxWcttqTR_vI96W3-85" value="Заголовок 1" style="shape=partialRectangle;html=1;whiteSpace=wrap;connectable=0;strokeColor=inherit;overflow=hidden;fillColor=none;top=0;left=0;bottom=0;right=0;pointerEvents=1;fontSize=16;" parent="VT_9sxWcttqTR_vI96W3-83" vertex="1">
          <mxGeometry x="100" width="130" height="40" as="geometry">
            <mxRectangle width="130" height="40" as="alternateBounds" />
          </mxGeometry>
        </mxCell>
        <mxCell id="VT_9sxWcttqTR_vI96W3-86" value="текст карточки" style="shape=partialRectangle;html=1;whiteSpace=wrap;connectable=0;strokeColor=inherit;overflow=hidden;fillColor=none;top=0;left=0;bottom=0;right=0;pointerEvents=1;fontSize=16;" parent="VT_9sxWcttqTR_vI96W3-83" vertex="1">
          <mxGeometry x="230" width="180" height="40" as="geometry">
            <mxRectangle width="180" height="40" as="alternateBounds" />
          </mxGeometry>
        </mxCell>
        <mxCell id="VT_9sxWcttqTR_vI96W3-87" value="" style="shape=tableRow;horizontal=0;startSize=0;swimlaneHead=0;swimlaneBody=0;strokeColor=inherit;top=0;left=0;bottom=0;right=0;collapsible=0;dropTarget=0;fillColor=none;points=[[0,0.5],[1,0.5]];portConstraint=eastwest;fontSize=16;" parent="VT_9sxWcttqTR_vI96W3-78" vertex="1">
          <mxGeometry y="130" width="410.0000000000002" height="40" as="geometry" />
        </mxCell>
        <mxCell id="VT_9sxWcttqTR_vI96W3-88" value="2" style="shape=partialRectangle;html=1;whiteSpace=wrap;connectable=0;strokeColor=inherit;overflow=hidden;fillColor=none;top=0;left=0;bottom=0;right=0;pointerEvents=1;fontSize=16;" parent="VT_9sxWcttqTR_vI96W3-87" vertex="1">
          <mxGeometry width="100" height="40" as="geometry">
            <mxRectangle width="100" height="40" as="alternateBounds" />
          </mxGeometry>
        </mxCell>
        <mxCell id="VT_9sxWcttqTR_vI96W3-89" value="Заголовок 2" style="shape=partialRectangle;html=1;whiteSpace=wrap;connectable=0;strokeColor=inherit;overflow=hidden;fillColor=none;top=0;left=0;bottom=0;right=0;pointerEvents=1;fontSize=16;" parent="VT_9sxWcttqTR_vI96W3-87" vertex="1">
          <mxGeometry x="100" width="130" height="40" as="geometry">
            <mxRectangle width="130" height="40" as="alternateBounds" />
          </mxGeometry>
        </mxCell>
        <mxCell id="VT_9sxWcttqTR_vI96W3-90" value="текст карточки" style="shape=partialRectangle;html=1;whiteSpace=wrap;connectable=0;strokeColor=inherit;overflow=hidden;fillColor=none;top=0;left=0;bottom=0;right=0;pointerEvents=1;fontSize=16;" parent="VT_9sxWcttqTR_vI96W3-87" vertex="1">
          <mxGeometry x="230" width="180" height="40" as="geometry">
            <mxRectangle width="180" height="40" as="alternateBounds" />
          </mxGeometry>
        </mxCell>
        <mxCell id="VT_9sxWcttqTR_vI96W3-91" value="Карточки" style="shape=table;startSize=30;container=1;collapsible=0;childLayout=tableLayout;strokeColor=default;fontSize=16;" parent="1" vertex="1">
          <mxGeometry x="480" y="970" width="410.0000000000002" height="170.00000000000023" as="geometry" />
        </mxCell>
        <mxCell id="VT_9sxWcttqTR_vI96W3-92" value="" style="shape=tableRow;horizontal=0;startSize=0;swimlaneHead=0;swimlaneBody=0;strokeColor=inherit;top=0;left=0;bottom=0;right=0;collapsible=0;dropTarget=0;fillColor=none;points=[[0,0.5],[1,0.5]];portConstraint=eastwest;fontSize=16;" parent="VT_9sxWcttqTR_vI96W3-91" vertex="1">
          <mxGeometry y="30" width="410.0000000000002" height="60" as="geometry" />
        </mxCell>
        <mxCell id="VT_9sxWcttqTR_vI96W3-93" value="card_status" style="shape=partialRectangle;html=1;whiteSpace=wrap;connectable=0;strokeColor=inherit;overflow=hidden;fillColor=none;top=0;left=0;bottom=0;right=0;pointerEvents=1;fontSize=16;" parent="VT_9sxWcttqTR_vI96W3-92" vertex="1">
          <mxGeometry width="115" height="60" as="geometry">
            <mxRectangle width="115" height="60" as="alternateBounds" />
          </mxGeometry>
        </mxCell>
        <mxCell id="VT_9sxWcttqTR_vI96W3-94" value="card_author_login" style="shape=partialRectangle;html=1;whiteSpace=wrap;connectable=0;strokeColor=inherit;overflow=hidden;fillColor=none;top=0;left=0;bottom=0;right=0;pointerEvents=1;fontSize=16;" parent="VT_9sxWcttqTR_vI96W3-92" vertex="1">
          <mxGeometry x="115" width="160" height="60" as="geometry">
            <mxRectangle width="160" height="60" as="alternateBounds" />
          </mxGeometry>
        </mxCell>
        <mxCell id="VT_9sxWcttqTR_vI96W3-95" value="card_desk_id" style="shape=partialRectangle;html=1;whiteSpace=wrap;connectable=0;strokeColor=inherit;overflow=hidden;fillColor=none;top=0;left=0;bottom=0;right=0;pointerEvents=1;fontSize=16;" parent="VT_9sxWcttqTR_vI96W3-92" vertex="1">
          <mxGeometry x="275" width="135" height="60" as="geometry">
            <mxRectangle width="135" height="60" as="alternateBounds" />
          </mxGeometry>
        </mxCell>
        <mxCell id="VT_9sxWcttqTR_vI96W3-96" value="" style="shape=tableRow;horizontal=0;startSize=0;swimlaneHead=0;swimlaneBody=0;strokeColor=inherit;top=0;left=0;bottom=0;right=0;collapsible=0;dropTarget=0;fillColor=none;points=[[0,0.5],[1,0.5]];portConstraint=eastwest;fontSize=16;" parent="VT_9sxWcttqTR_vI96W3-91" vertex="1">
          <mxGeometry y="90" width="410.0000000000002" height="40" as="geometry" />
        </mxCell>
        <mxCell id="VT_9sxWcttqTR_vI96W3-97" value="1" style="shape=partialRectangle;html=1;whiteSpace=wrap;connectable=0;strokeColor=inherit;overflow=hidden;fillColor=none;top=0;left=0;bottom=0;right=0;pointerEvents=1;fontSize=16;" parent="VT_9sxWcttqTR_vI96W3-96" vertex="1">
          <mxGeometry width="115" height="40" as="geometry">
            <mxRectangle width="115" height="40" as="alternateBounds" />
          </mxGeometry>
        </mxCell>
        <mxCell id="VT_9sxWcttqTR_vI96W3-98" value="bob" style="shape=partialRectangle;html=1;whiteSpace=wrap;connectable=0;strokeColor=inherit;overflow=hidden;fillColor=none;top=0;left=0;bottom=0;right=0;pointerEvents=1;fontSize=16;" parent="VT_9sxWcttqTR_vI96W3-96" vertex="1">
          <mxGeometry x="115" width="160" height="40" as="geometry">
            <mxRectangle width="160" height="40" as="alternateBounds" />
          </mxGeometry>
        </mxCell>
        <mxCell id="VT_9sxWcttqTR_vI96W3-99" value="3" style="shape=partialRectangle;html=1;whiteSpace=wrap;connectable=0;strokeColor=inherit;overflow=hidden;fillColor=none;top=0;left=0;bottom=0;right=0;pointerEvents=1;fontSize=16;" parent="VT_9sxWcttqTR_vI96W3-96" vertex="1">
          <mxGeometry x="275" width="135" height="40" as="geometry">
            <mxRectangle width="135" height="40" as="alternateBounds" />
          </mxGeometry>
        </mxCell>
        <mxCell id="VT_9sxWcttqTR_vI96W3-100" value="" style="shape=tableRow;horizontal=0;startSize=0;swimlaneHead=0;swimlaneBody=0;strokeColor=inherit;top=0;left=0;bottom=0;right=0;collapsible=0;dropTarget=0;fillColor=none;points=[[0,0.5],[1,0.5]];portConstraint=eastwest;fontSize=16;" parent="VT_9sxWcttqTR_vI96W3-91" vertex="1">
          <mxGeometry y="130" width="410.0000000000002" height="40" as="geometry" />
        </mxCell>
        <mxCell id="VT_9sxWcttqTR_vI96W3-101" value="3" style="shape=partialRectangle;html=1;whiteSpace=wrap;connectable=0;strokeColor=inherit;overflow=hidden;fillColor=none;top=0;left=0;bottom=0;right=0;pointerEvents=1;fontSize=16;" parent="VT_9sxWcttqTR_vI96W3-100" vertex="1">
          <mxGeometry width="115" height="40" as="geometry">
            <mxRectangle width="115" height="40" as="alternateBounds" />
          </mxGeometry>
        </mxCell>
        <mxCell id="VT_9sxWcttqTR_vI96W3-102" value="bob" style="shape=partialRectangle;html=1;whiteSpace=wrap;connectable=0;strokeColor=inherit;overflow=hidden;fillColor=none;top=0;left=0;bottom=0;right=0;pointerEvents=1;fontSize=16;" parent="VT_9sxWcttqTR_vI96W3-100" vertex="1">
          <mxGeometry x="115" width="160" height="40" as="geometry">
            <mxRectangle width="160" height="40" as="alternateBounds" />
          </mxGeometry>
        </mxCell>
        <mxCell id="VT_9sxWcttqTR_vI96W3-103" value="3" style="shape=partialRectangle;html=1;whiteSpace=wrap;connectable=0;strokeColor=inherit;overflow=hidden;fillColor=none;top=0;left=0;bottom=0;right=0;pointerEvents=1;fontSize=16;" parent="VT_9sxWcttqTR_vI96W3-100" vertex="1">
          <mxGeometry x="275" width="135" height="40" as="geometry">
            <mxRectangle width="135" height="40" as="alternateBounds" />
          </mxGeometry>
        </mxCell>
        <mxCell id="VT_9sxWcttqTR_vI96W3-104" value="Карточки" style="shape=table;startSize=30;container=1;collapsible=0;childLayout=tableLayout;strokeColor=default;fontSize=16;" parent="1" vertex="1">
          <mxGeometry x="890" y="970" width="410.0000000000002" height="170.00000000000023" as="geometry" />
        </mxCell>
        <mxCell id="VT_9sxWcttqTR_vI96W3-105" value="" style="shape=tableRow;horizontal=0;startSize=0;swimlaneHead=0;swimlaneBody=0;strokeColor=inherit;top=0;left=0;bottom=0;right=0;collapsible=0;dropTarget=0;fillColor=none;points=[[0,0.5],[1,0.5]];portConstraint=eastwest;fontSize=16;" parent="VT_9sxWcttqTR_vI96W3-104" vertex="1">
          <mxGeometry y="30" width="410.0000000000002" height="60" as="geometry" />
        </mxCell>
        <mxCell id="VT_9sxWcttqTR_vI96W3-106" value="card_column_id" style="shape=partialRectangle;html=1;whiteSpace=wrap;connectable=0;strokeColor=inherit;overflow=hidden;fillColor=none;top=0;left=0;bottom=0;right=0;pointerEvents=1;fontSize=16;" parent="VT_9sxWcttqTR_vI96W3-105" vertex="1">
          <mxGeometry width="155" height="60" as="geometry">
            <mxRectangle width="155" height="60" as="alternateBounds" />
          </mxGeometry>
        </mxCell>
        <mxCell id="VT_9sxWcttqTR_vI96W3-107" value="card_number_in_column" style="shape=partialRectangle;html=1;whiteSpace=wrap;connectable=0;strokeColor=inherit;overflow=hidden;fillColor=none;top=0;left=0;bottom=0;right=0;pointerEvents=1;fontSize=16;" parent="VT_9sxWcttqTR_vI96W3-105" vertex="1">
          <mxGeometry x="155" width="170" height="60" as="geometry">
            <mxRectangle width="170" height="60" as="alternateBounds" />
          </mxGeometry>
        </mxCell>
        <mxCell id="VT_9sxWcttqTR_vI96W3-108" value="" style="shape=partialRectangle;html=1;whiteSpace=wrap;connectable=0;strokeColor=inherit;overflow=hidden;fillColor=none;top=0;left=0;bottom=0;right=0;pointerEvents=1;fontSize=16;" parent="VT_9sxWcttqTR_vI96W3-105" vertex="1">
          <mxGeometry x="325" width="85" height="60" as="geometry">
            <mxRectangle width="85" height="60" as="alternateBounds" />
          </mxGeometry>
        </mxCell>
        <mxCell id="VT_9sxWcttqTR_vI96W3-109" value="" style="shape=tableRow;horizontal=0;startSize=0;swimlaneHead=0;swimlaneBody=0;strokeColor=inherit;top=0;left=0;bottom=0;right=0;collapsible=0;dropTarget=0;fillColor=none;points=[[0,0.5],[1,0.5]];portConstraint=eastwest;fontSize=16;" parent="VT_9sxWcttqTR_vI96W3-104" vertex="1">
          <mxGeometry y="90" width="410.0000000000002" height="40" as="geometry" />
        </mxCell>
        <mxCell id="VT_9sxWcttqTR_vI96W3-110" value="7" style="shape=partialRectangle;html=1;whiteSpace=wrap;connectable=0;strokeColor=inherit;overflow=hidden;fillColor=none;top=0;left=0;bottom=0;right=0;pointerEvents=1;fontSize=16;" parent="VT_9sxWcttqTR_vI96W3-109" vertex="1">
          <mxGeometry width="155" height="40" as="geometry">
            <mxRectangle width="155" height="40" as="alternateBounds" />
          </mxGeometry>
        </mxCell>
        <mxCell id="VT_9sxWcttqTR_vI96W3-111" value="0" style="shape=partialRectangle;html=1;whiteSpace=wrap;connectable=0;strokeColor=inherit;overflow=hidden;fillColor=none;top=0;left=0;bottom=0;right=0;pointerEvents=1;fontSize=16;" parent="VT_9sxWcttqTR_vI96W3-109" vertex="1">
          <mxGeometry x="155" width="170" height="40" as="geometry">
            <mxRectangle width="170" height="40" as="alternateBounds" />
          </mxGeometry>
        </mxCell>
        <mxCell id="VT_9sxWcttqTR_vI96W3-112" value="" style="shape=partialRectangle;html=1;whiteSpace=wrap;connectable=0;strokeColor=inherit;overflow=hidden;fillColor=none;top=0;left=0;bottom=0;right=0;pointerEvents=1;fontSize=16;" parent="VT_9sxWcttqTR_vI96W3-109" vertex="1">
          <mxGeometry x="325" width="85" height="40" as="geometry">
            <mxRectangle width="85" height="40" as="alternateBounds" />
          </mxGeometry>
        </mxCell>
        <mxCell id="VT_9sxWcttqTR_vI96W3-113" value="" style="shape=tableRow;horizontal=0;startSize=0;swimlaneHead=0;swimlaneBody=0;strokeColor=inherit;top=0;left=0;bottom=0;right=0;collapsible=0;dropTarget=0;fillColor=none;points=[[0,0.5],[1,0.5]];portConstraint=eastwest;fontSize=16;" parent="VT_9sxWcttqTR_vI96W3-104" vertex="1">
          <mxGeometry y="130" width="410.0000000000002" height="40" as="geometry" />
        </mxCell>
        <mxCell id="VT_9sxWcttqTR_vI96W3-114" value="7" style="shape=partialRectangle;html=1;whiteSpace=wrap;connectable=0;strokeColor=inherit;overflow=hidden;fillColor=none;top=0;left=0;bottom=0;right=0;pointerEvents=1;fontSize=16;" parent="VT_9sxWcttqTR_vI96W3-113" vertex="1">
          <mxGeometry width="155" height="40" as="geometry">
            <mxRectangle width="155" height="40" as="alternateBounds" />
          </mxGeometry>
        </mxCell>
        <mxCell id="VT_9sxWcttqTR_vI96W3-115" value="1" style="shape=partialRectangle;html=1;whiteSpace=wrap;connectable=0;strokeColor=inherit;overflow=hidden;fillColor=none;top=0;left=0;bottom=0;right=0;pointerEvents=1;fontSize=16;" parent="VT_9sxWcttqTR_vI96W3-113" vertex="1">
          <mxGeometry x="155" width="170" height="40" as="geometry">
            <mxRectangle width="170" height="40" as="alternateBounds" />
          </mxGeometry>
        </mxCell>
        <mxCell id="VT_9sxWcttqTR_vI96W3-116" value="" style="shape=partialRectangle;html=1;whiteSpace=wrap;connectable=0;strokeColor=inherit;overflow=hidden;fillColor=none;top=0;left=0;bottom=0;right=0;pointerEvents=1;fontSize=16;" parent="VT_9sxWcttqTR_vI96W3-113" vertex="1">
          <mxGeometry x="325" width="85" height="40" as="geometry">
            <mxRectangle width="85" height="40" as="alternateBounds" />
          </mxGeometry>
        </mxCell>
        <mxCell id="VT_9sxWcttqTR_vI96W3-117" value="&lt;font style=&quot;font-size: 14px;&quot;&gt;От статуса карточки зависит её цвет&lt;br&gt;0 - по умолчанию (серый)&lt;br&gt;1 - Зелёный&lt;br&gt;2 - Жёлтый&lt;br&gt;3 - Красный&lt;/font&gt;" style="text;html=1;strokeColor=none;fillColor=none;align=left;verticalAlign=top;whiteSpace=wrap;rounded=0;" parent="1" vertex="1">
          <mxGeometry x="411" y="840" width="310" height="90" as="geometry" />
        </mxCell>
        <mxCell id="VT_9sxWcttqTR_vI96W3-118" value="" style="endArrow=classic;html=1;rounded=0;entryX=0.121;entryY=0.025;entryDx=0;entryDy=0;entryPerimeter=0;exitX=0.25;exitY=1;exitDx=0;exitDy=0;" parent="1" source="VT_9sxWcttqTR_vI96W3-117" target="VT_9sxWcttqTR_vI96W3-92" edge="1">
          <mxGeometry width="50" height="50" relative="1" as="geometry">
            <mxPoint x="500" y="950" as="sourcePoint" />
            <mxPoint x="550" y="900" as="targetPoint" />
          </mxGeometry>
        </mxCell>
        <mxCell id="VT_9sxWcttqTR_vI96W3-119" value="&lt;span style=&quot;font-size: 14px;&quot;&gt;id доски, которой&lt;br&gt;при надлежит карточка&lt;/span&gt;" style="text;html=1;strokeColor=none;fillColor=none;align=left;verticalAlign=top;whiteSpace=wrap;rounded=0;" parent="1" vertex="1">
          <mxGeometry x="730" y="860" width="160" height="90" as="geometry" />
        </mxCell>
        <mxCell id="VT_9sxWcttqTR_vI96W3-120" value="" style="endArrow=classic;html=1;rounded=0;entryX=0.841;entryY=-0.085;entryDx=0;entryDy=0;entryPerimeter=0;exitX=0.25;exitY=1;exitDx=0;exitDy=0;" parent="1" target="VT_9sxWcttqTR_vI96W3-92" edge="1">
          <mxGeometry width="50" height="50" relative="1" as="geometry">
            <mxPoint x="788.5" y="910" as="sourcePoint" />
            <mxPoint x="831.5" y="982" as="targetPoint" />
          </mxGeometry>
        </mxCell>
        <mxCell id="VT_9sxWcttqTR_vI96W3-121" value="&lt;span style=&quot;font-size: 14px;&quot;&gt;id колонки, которой&lt;br&gt;при надлежит карточка&lt;br&gt;(у каждой column уникальный id)&lt;br&gt;&lt;/span&gt;" style="text;html=1;strokeColor=none;fillColor=none;align=left;verticalAlign=top;whiteSpace=wrap;rounded=0;" parent="1" vertex="1">
          <mxGeometry x="920" y="850" width="220" height="70" as="geometry" />
        </mxCell>
        <mxCell id="VT_9sxWcttqTR_vI96W3-122" value="" style="endArrow=classic;html=1;rounded=0;entryX=0.223;entryY=-0.023;entryDx=0;entryDy=0;entryPerimeter=0;" parent="1" source="VT_9sxWcttqTR_vI96W3-121" target="VT_9sxWcttqTR_vI96W3-105" edge="1">
          <mxGeometry width="50" height="50" relative="1" as="geometry">
            <mxPoint x="798.5" y="920" as="sourcePoint" />
            <mxPoint x="835" y="1005" as="targetPoint" />
          </mxGeometry>
        </mxCell>
        <mxCell id="VT_9sxWcttqTR_vI96W3-123" value="&lt;font style=&quot;font-size: 14px;&quot;&gt;Номер карточки в колонке.&lt;br&gt;Нумерация с 0&lt;br&gt;&lt;/font&gt;" style="text;html=1;strokeColor=none;fillColor=none;align=left;verticalAlign=top;whiteSpace=wrap;rounded=0;" parent="1" vertex="1">
          <mxGeometry x="1190" y="860" width="220" height="50" as="geometry" />
        </mxCell>
        <mxCell id="VT_9sxWcttqTR_vI96W3-124" value="" style="endArrow=classic;html=1;rounded=0;" parent="1" target="VT_9sxWcttqTR_vI96W3-105" edge="1">
          <mxGeometry width="50" height="50" relative="1" as="geometry">
            <mxPoint x="1244" y="910" as="sourcePoint" />
            <mxPoint x="1210" y="989" as="targetPoint" />
          </mxGeometry>
        </mxCell>
        <mxCell id="VT_9sxWcttqTR_vI96W3-125" value="" style="endArrow=classic;html=1;rounded=0;exitX=0.636;exitY=0.8;exitDx=0;exitDy=0;exitPerimeter=0;" parent="1" source="VT_9sxWcttqTR_vI96W3-123" edge="1">
          <mxGeometry width="50" height="50" relative="1" as="geometry">
            <mxPoint x="1350" y="950" as="sourcePoint" />
            <mxPoint x="1520" y="940" as="targetPoint" />
          </mxGeometry>
        </mxCell>
        <mxCell id="VT_9sxWcttqTR_vI96W3-126" value="" style="rounded=1;whiteSpace=wrap;html=1;" parent="1" vertex="1">
          <mxGeometry x="1530" y="810" width="500" height="350" as="geometry" />
        </mxCell>
        <mxCell id="VT_9sxWcttqTR_vI96W3-127" value="" style="rounded=1;whiteSpace=wrap;html=1;" parent="1" vertex="1">
          <mxGeometry x="1560" y="850" width="170" height="290" as="geometry" />
        </mxCell>
        <mxCell id="VT_9sxWcttqTR_vI96W3-128" value="" style="rounded=1;whiteSpace=wrap;html=1;" parent="1" vertex="1">
          <mxGeometry x="1820" y="850" width="170" height="290" as="geometry" />
        </mxCell>
        <mxCell id="VT_9sxWcttqTR_vI96W3-129" value="Колонка 1" style="text;html=1;strokeColor=none;fillColor=none;align=center;verticalAlign=middle;whiteSpace=wrap;rounded=0;" parent="1" vertex="1">
          <mxGeometry x="1615" y="820" width="60" height="30" as="geometry" />
        </mxCell>
        <mxCell id="VT_9sxWcttqTR_vI96W3-130" value="Колонка 2" style="text;html=1;strokeColor=none;fillColor=none;align=center;verticalAlign=middle;whiteSpace=wrap;rounded=0;" parent="1" vertex="1">
          <mxGeometry x="1870" y="820" width="60" height="30" as="geometry" />
        </mxCell>
        <mxCell id="VT_9sxWcttqTR_vI96W3-131" value="Карточка 1&lt;br&gt;Номер карточки: 0" style="rounded=1;whiteSpace=wrap;html=1;fillColor=#d5e8d4;strokeColor=#82b366;" parent="1" vertex="1">
          <mxGeometry x="1585" y="875" width="120" height="60" as="geometry" />
        </mxCell>
        <mxCell id="VT_9sxWcttqTR_vI96W3-132" value="Карточка 3&lt;br&gt;Номер карточки: 2" style="rounded=1;whiteSpace=wrap;html=1;fillColor=#fff2cc;strokeColor=#d6b656;" parent="1" vertex="1">
          <mxGeometry x="1585" y="1025" width="120" height="60" as="geometry" />
        </mxCell>
        <mxCell id="VT_9sxWcttqTR_vI96W3-133" value="Карточка 2&lt;br&gt;Номер карточки: 1" style="rounded=1;whiteSpace=wrap;html=1;" parent="1" vertex="1">
          <mxGeometry x="1585" y="950" width="120" height="60" as="geometry" />
        </mxCell>
        <mxCell id="VT_9sxWcttqTR_vI96W3-134" value="Карточка 13&lt;br&gt;Номер карточки: 0" style="rounded=1;whiteSpace=wrap;html=1;fillColor=#f8cecc;strokeColor=#b85450;" parent="1" vertex="1">
          <mxGeometry x="1845" y="870" width="120" height="60" as="geometry" />
        </mxCell>
        <mxCell id="VT_9sxWcttqTR_vI96W3-135" value="Пример" style="text;html=1;strokeColor=none;fillColor=none;align=center;verticalAlign=middle;whiteSpace=wrap;rounded=0;" parent="1" vertex="1">
          <mxGeometry x="1410" y="885" width="60" height="30" as="geometry" />
        </mxCell>
        <mxCell id="dVkucGR_sj8j6YUY0vbn-1" value="" style="ellipse;whiteSpace=wrap;html=1;aspect=fixed;" vertex="1" parent="1">
          <mxGeometry x="1535" y="100" width="430" height="430" as="geometry" />
        </mxCell>
        <mxCell id="dVkucGR_sj8j6YUY0vbn-2" value="&lt;font style=&quot;font-size: 17px;&quot;&gt;Каждая бд должна быть в отдельном классе&lt;br&gt;В этих классах не должно быть высокоуровневой логики&lt;br&gt;Нужно тестировать каждую функцию на работоспособность сразу&lt;/font&gt;" style="text;html=1;strokeColor=none;fillColor=none;align=center;verticalAlign=middle;whiteSpace=wrap;rounded=0;" vertex="1" parent="1">
          <mxGeometry x="1545" y="220" width="410" height="200" as="geometry" />
        </mxCell>
      </root>
    </mxGraphModel>
  </diagram>
  <diagram id="hPtf0ef1Ho6N7gWYrOAn" name="drag-and-drop">
    <mxGraphModel dx="3332" dy="1443" grid="1" gridSize="10" guides="1" tooltips="1" connect="1" arrows="1" fold="1" page="1" pageScale="1" pageWidth="827" pageHeight="1169" math="0" shadow="0">
      <root>
        <mxCell id="0" />
        <mxCell id="1" parent="0" />
        <mxCell id="PaXs6kezvREEKurUlVSr-1" value="" style="rounded=1;whiteSpace=wrap;html=1;" vertex="1" parent="1">
          <mxGeometry x="70" y="270" width="551" height="585" as="geometry" />
        </mxCell>
        <mxCell id="PaXs6kezvREEKurUlVSr-2" value="Доска 4 (название доски)" style="rounded=1;whiteSpace=wrap;html=1;" vertex="1" parent="1">
          <mxGeometry x="286" y="295" width="150" height="60" as="geometry" />
        </mxCell>
        <mxCell id="PaXs6kezvREEKurUlVSr-3" value="Назад" style="rounded=1;whiteSpace=wrap;html=1;" vertex="1" parent="1">
          <mxGeometry x="111" y="305" width="81" height="30" as="geometry" />
        </mxCell>
        <mxCell id="PaXs6kezvREEKurUlVSr-4" value="" style="rounded=1;whiteSpace=wrap;html=1;" vertex="1" parent="1">
          <mxGeometry x="111" y="485" width="150" height="310" as="geometry" />
        </mxCell>
        <mxCell id="PaXs6kezvREEKurUlVSr-5" value="Столбец 1&lt;br&gt;(название столбца)" style="rounded=1;whiteSpace=wrap;html=1;" vertex="1" parent="1">
          <mxGeometry x="136" y="425" width="100" height="50" as="geometry" />
        </mxCell>
        <mxCell id="PaXs6kezvREEKurUlVSr-6" value="Карточка 1 (card_title)&lt;br&gt;Номер карточки (в столбце): 0" style="rounded=1;whiteSpace=wrap;html=1;fillColor=#d5e8d4;strokeColor=#82b366;" vertex="1" parent="1">
          <mxGeometry x="126" y="495" width="125" height="60" as="geometry" />
        </mxCell>
        <mxCell id="PaXs6kezvREEKurUlVSr-7" value="Карточка 3&lt;br&gt;Номер карточки: 2" style="rounded=1;whiteSpace=wrap;html=1;fillColor=#f8cecc;strokeColor=#b85450;" vertex="1" parent="1">
          <mxGeometry x="126" y="645" width="120" height="60" as="geometry" />
        </mxCell>
        <mxCell id="PaXs6kezvREEKurUlVSr-8" value="Карточка 2&lt;br&gt;Номер карточки: 1" style="rounded=1;whiteSpace=wrap;html=1;fillColor=#fff2cc;strokeColor=#d6b656;" vertex="1" parent="1">
          <mxGeometry x="126" y="570" width="120" height="60" as="geometry" />
        </mxCell>
        <mxCell id="PaXs6kezvREEKurUlVSr-9" value="" style="rounded=1;whiteSpace=wrap;html=1;" vertex="1" parent="1">
          <mxGeometry x="281" y="485" width="150" height="260" as="geometry" />
        </mxCell>
        <mxCell id="PaXs6kezvREEKurUlVSr-10" value="Столбец 2&lt;br&gt;(название столбца)" style="rounded=1;whiteSpace=wrap;html=1;" vertex="1" parent="1">
          <mxGeometry x="306" y="425" width="100" height="50" as="geometry" />
        </mxCell>
        <mxCell id="PaXs6kezvREEKurUlVSr-11" value="Карточка 44&lt;br&gt;Номер карточки: 0" style="rounded=1;whiteSpace=wrap;html=1;fillColor=#d5e8d4;strokeColor=#82b366;" vertex="1" parent="1">
          <mxGeometry x="296" y="495" width="125" height="60" as="geometry" />
        </mxCell>
        <mxCell id="PaXs6kezvREEKurUlVSr-12" value="Добавить карточку" style="rounded=1;whiteSpace=wrap;html=1;" vertex="1" parent="1">
          <mxGeometry x="296" y="655" width="125" height="60" as="geometry" />
        </mxCell>
        <mxCell id="PaXs6kezvREEKurUlVSr-13" value="Добавить карточку" style="rounded=1;whiteSpace=wrap;html=1;" vertex="1" parent="1">
          <mxGeometry x="123.5" y="715" width="125" height="60" as="geometry" />
        </mxCell>
        <mxCell id="PaXs6kezvREEKurUlVSr-14" value="Добавить столбец (колонку)" style="rounded=1;whiteSpace=wrap;html=1;" vertex="1" parent="1">
          <mxGeometry x="461" y="420" width="125" height="60" as="geometry" />
        </mxCell>
        <mxCell id="PaXs6kezvREEKurUlVSr-15" value="card title here&lt;br&gt;Номер карточки: 1" style="rounded=1;whiteSpace=wrap;html=1;" vertex="1" parent="1">
          <mxGeometry x="293.5" y="575" width="125" height="60" as="geometry" />
        </mxCell>
        <mxCell id="PaXs6kezvREEKurUlVSr-16" value="" style="rounded=1;whiteSpace=wrap;html=1;" vertex="1" parent="1">
          <mxGeometry x="1430" y="260" width="551" height="585" as="geometry" />
        </mxCell>
        <mxCell id="PaXs6kezvREEKurUlVSr-17" value="Доска 4 (название доски)" style="rounded=1;whiteSpace=wrap;html=1;" vertex="1" parent="1">
          <mxGeometry x="1646" y="285" width="150" height="60" as="geometry" />
        </mxCell>
        <mxCell id="PaXs6kezvREEKurUlVSr-18" value="Назад" style="rounded=1;whiteSpace=wrap;html=1;" vertex="1" parent="1">
          <mxGeometry x="1471" y="295" width="81" height="30" as="geometry" />
        </mxCell>
        <mxCell id="PaXs6kezvREEKurUlVSr-19" value="" style="rounded=1;whiteSpace=wrap;html=1;" vertex="1" parent="1">
          <mxGeometry x="1471" y="475" width="150" height="245" as="geometry" />
        </mxCell>
        <mxCell id="PaXs6kezvREEKurUlVSr-20" value="Столбец 1&lt;br&gt;(название столбца)" style="rounded=1;whiteSpace=wrap;html=1;" vertex="1" parent="1">
          <mxGeometry x="1496" y="415" width="100" height="50" as="geometry" />
        </mxCell>
        <mxCell id="PaXs6kezvREEKurUlVSr-21" value="Карточка 1 (card_title)&lt;br&gt;Номер карточки: 0" style="rounded=1;whiteSpace=wrap;html=1;fillColor=#d5e8d4;strokeColor=#82b366;" vertex="1" parent="1">
          <mxGeometry x="1486" y="485" width="125" height="60" as="geometry" />
        </mxCell>
        <mxCell id="PaXs6kezvREEKurUlVSr-22" value="Карточка 3&lt;br&gt;Номер карточки: 1" style="rounded=1;whiteSpace=wrap;html=1;fillColor=#f8cecc;strokeColor=#b85450;" vertex="1" parent="1">
          <mxGeometry x="1486" y="564" width="120" height="60" as="geometry" />
        </mxCell>
        <mxCell id="PaXs6kezvREEKurUlVSr-24" value="" style="rounded=1;whiteSpace=wrap;html=1;" vertex="1" parent="1">
          <mxGeometry x="1641" y="475" width="150" height="315" as="geometry" />
        </mxCell>
        <mxCell id="PaXs6kezvREEKurUlVSr-25" value="Столбец 2&lt;br&gt;(название столбца)" style="rounded=1;whiteSpace=wrap;html=1;" vertex="1" parent="1">
          <mxGeometry x="1666" y="415" width="100" height="50" as="geometry" />
        </mxCell>
        <mxCell id="PaXs6kezvREEKurUlVSr-26" value="Карточка 44&lt;br&gt;Номер карточки: 0" style="rounded=1;whiteSpace=wrap;html=1;fillColor=#d5e8d4;strokeColor=#82b366;" vertex="1" parent="1">
          <mxGeometry x="1656" y="485" width="125" height="60" as="geometry" />
        </mxCell>
        <mxCell id="PaXs6kezvREEKurUlVSr-27" value="Добавить карточку" style="rounded=1;whiteSpace=wrap;html=1;" vertex="1" parent="1">
          <mxGeometry x="1653.5" y="715" width="125" height="60" as="geometry" />
        </mxCell>
        <mxCell id="PaXs6kezvREEKurUlVSr-28" value="Добавить карточку" style="rounded=1;whiteSpace=wrap;html=1;" vertex="1" parent="1">
          <mxGeometry x="1486" y="635" width="125" height="60" as="geometry" />
        </mxCell>
        <mxCell id="PaXs6kezvREEKurUlVSr-29" value="Добавить столбец (колонку)" style="rounded=1;whiteSpace=wrap;html=1;" vertex="1" parent="1">
          <mxGeometry x="1821" y="410" width="125" height="60" as="geometry" />
        </mxCell>
        <mxCell id="PaXs6kezvREEKurUlVSr-30" value="card title here&lt;br&gt;Номер карточки: 2" style="rounded=1;whiteSpace=wrap;html=1;" vertex="1" parent="1">
          <mxGeometry x="1653.5" y="645" width="125" height="60" as="geometry" />
        </mxCell>
        <mxCell id="PaXs6kezvREEKurUlVSr-23" value="Карточка 2&lt;br&gt;Номер карточки: 1" style="rounded=1;whiteSpace=wrap;html=1;fillColor=#fff2cc;strokeColor=#d6b656;" vertex="1" parent="1">
          <mxGeometry x="1653.5" y="565" width="120" height="60" as="geometry" />
        </mxCell>
        <mxCell id="PaXs6kezvREEKurUlVSr-31" value="" style="endArrow=classic;html=1;rounded=0;entryX=0.004;entryY=0.519;entryDx=0;entryDy=0;entryPerimeter=0;" edge="1" parent="1" source="PaXs6kezvREEKurUlVSr-1" target="PaXs6kezvREEKurUlVSr-16">
          <mxGeometry width="50" height="50" relative="1" as="geometry">
            <mxPoint x="660" y="620" as="sourcePoint" />
            <mxPoint x="710" y="570" as="targetPoint" />
          </mxGeometry>
        </mxCell>
        <mxCell id="PaXs6kezvREEKurUlVSr-32" value="&lt;font style=&quot;font-size: 21px;&quot;&gt;&lt;b&gt;Перемещение карточки между столбцами&lt;/b&gt;&lt;/font&gt;" style="text;html=1;strokeColor=none;fillColor=none;align=center;verticalAlign=middle;whiteSpace=wrap;rounded=0;" vertex="1" parent="1">
          <mxGeometry x="470" y="100" width="520" height="70" as="geometry" />
        </mxCell>
        <mxCell id="mfGTXVvmW9KnjTN2J2r3-1" value="Перемещение карточки&lt;br&gt;&lt;b&gt;user_interface.move_card(card_id=88, current_column_id=14, new_column_id=22, card_number_in_new_column=1)&lt;/b&gt;" style="text;html=1;strokeColor=none;fillColor=none;align=left;verticalAlign=top;whiteSpace=wrap;rounded=0;fontSize=14;" vertex="1" parent="1">
          <mxGeometry x="710" y="450" width="660" height="95" as="geometry" />
        </mxCell>
        <mxCell id="mfGTXVvmW9KnjTN2J2r3-3" value="" style="endArrow=none;html=1;rounded=0;entryX=0;entryY=0.5;entryDx=0;entryDy=0;exitX=0.5;exitY=0;exitDx=0;exitDy=0;" edge="1" parent="1" source="mfGTXVvmW9KnjTN2J2r3-4" target="PaXs6kezvREEKurUlVSr-8">
          <mxGeometry width="50" height="50" relative="1" as="geometry">
            <mxPoint x="-40" y="550" as="sourcePoint" />
            <mxPoint x="10" y="500" as="targetPoint" />
          </mxGeometry>
        </mxCell>
        <mxCell id="mfGTXVvmW9KnjTN2J2r3-4" value="" style="ellipse;whiteSpace=wrap;html=1;aspect=fixed;" vertex="1" parent="1">
          <mxGeometry x="-170" y="565" width="110" height="110" as="geometry" />
        </mxCell>
        <mxCell id="mfGTXVvmW9KnjTN2J2r3-2" value="card_id: 88" style="text;html=1;strokeColor=none;fillColor=none;align=center;verticalAlign=middle;whiteSpace=wrap;rounded=0;" vertex="1" parent="1">
          <mxGeometry x="-185" y="600" width="140" height="30" as="geometry" />
        </mxCell>
        <mxCell id="mfGTXVvmW9KnjTN2J2r3-7" value="" style="ellipse;whiteSpace=wrap;html=1;aspect=fixed;" vertex="1" parent="1">
          <mxGeometry x="-170" y="300" width="110" height="110" as="geometry" />
        </mxCell>
        <mxCell id="mfGTXVvmW9KnjTN2J2r3-6" value="column_id: 14" style="text;html=1;strokeColor=none;fillColor=none;align=center;verticalAlign=middle;whiteSpace=wrap;rounded=0;" vertex="1" parent="1">
          <mxGeometry x="-185" y="335" width="140" height="30" as="geometry" />
        </mxCell>
        <mxCell id="mfGTXVvmW9KnjTN2J2r3-8" value="" style="ellipse;whiteSpace=wrap;html=1;aspect=fixed;" vertex="1" parent="1">
          <mxGeometry x="126" y="120" width="110" height="110" as="geometry" />
        </mxCell>
        <mxCell id="mfGTXVvmW9KnjTN2J2r3-9" value="column_id: 22" style="text;html=1;strokeColor=none;fillColor=none;align=center;verticalAlign=middle;whiteSpace=wrap;rounded=0;" vertex="1" parent="1">
          <mxGeometry x="111" y="155" width="140" height="30" as="geometry" />
        </mxCell>
        <mxCell id="mfGTXVvmW9KnjTN2J2r3-10" value="" style="endArrow=none;html=1;rounded=0;entryX=0.5;entryY=1;entryDx=0;entryDy=0;exitX=0.5;exitY=0;exitDx=0;exitDy=0;" edge="1" parent="1" source="PaXs6kezvREEKurUlVSr-10" target="mfGTXVvmW9KnjTN2J2r3-8">
          <mxGeometry width="50" height="50" relative="1" as="geometry">
            <mxPoint x="20" y="240" as="sourcePoint" />
            <mxPoint x="70" y="190" as="targetPoint" />
          </mxGeometry>
        </mxCell>
        <mxCell id="mfGTXVvmW9KnjTN2J2r3-11" value="" style="endArrow=none;html=1;rounded=0;entryX=0;entryY=0.5;entryDx=0;entryDy=0;exitX=0.899;exitY=1.04;exitDx=0;exitDy=0;exitPerimeter=0;" edge="1" parent="1" source="mfGTXVvmW9KnjTN2J2r3-6" target="PaXs6kezvREEKurUlVSr-5">
          <mxGeometry width="50" height="50" relative="1" as="geometry">
            <mxPoint x="-10" y="470" as="sourcePoint" />
            <mxPoint x="40" y="420" as="targetPoint" />
          </mxGeometry>
        </mxCell>
        <mxCell id="mfGTXVvmW9KnjTN2J2r3-12" value="" style="curved=1;endArrow=classic;html=1;rounded=0;entryX=0;entryY=1;entryDx=0;entryDy=0;exitX=1;exitY=1;exitDx=0;exitDy=0;" edge="1" parent="1" source="PaXs6kezvREEKurUlVSr-8" target="PaXs6kezvREEKurUlVSr-23">
          <mxGeometry width="50" height="50" relative="1" as="geometry">
            <mxPoint x="480" y="980" as="sourcePoint" />
            <mxPoint x="1090" y="800" as="targetPoint" />
            <Array as="points">
              <mxPoint x="780" y="1120" />
              <mxPoint x="1180" y="1100" />
            </Array>
          </mxGeometry>
        </mxCell>
        <mxCell id="mfGTXVvmW9KnjTN2J2r3-14" value="В backend при перемещении карточки нужно обновить&amp;nbsp;card_number_in_column для всех карточек.&lt;br&gt;+ нужно учесть случай, когда карточка перемещается внутри столбца (вверх или вниз)" style="text;html=1;strokeColor=none;fillColor=none;align=left;verticalAlign=top;whiteSpace=wrap;rounded=0;fontSize=14;" vertex="1" parent="1">
          <mxGeometry x="700" y="625" width="660" height="95" as="geometry" />
        </mxCell>
      </root>
    </mxGraphModel>
  </diagram>
</mxfile>
